<?xml version="1.0" standalone="no"?>
<!DOCTYPE svg PUBLIC "-//W3C//DTD SVG 1.1//EN" "http://www.w3.org/Graphics/SVG/1.1/DTD/svg11.dtd" >
<svg xmlns="http://www.w3.org/2000/svg" xmlns:xlink="http://www.w3.org/1999/xlink" version="1.1">
<metadata>
Created by FontForge 20170731 at Sat Apr 13 18:37:33 2019
 By Aleksey,,,
Copyright (c) 2019 by Fontastica. All rights reserved.
</metadata>
<defs>
<font id="Brooklyn-Bold" horiz-adv-x="323" >
  <font-face 
    font-family="Brooklyn"
    font-weight="700"
    font-stretch="normal"
    units-per-em="1000"
    panose-1="0 0 8 0 0 0 0 0 0 0"
    ascent="800"
    descent="-200"
    x-height="476"
    cap-height="665"
    bbox="-58 -230 1123 816"
    underline-thickness="50"
    underline-position="-200"
    unicode-range="U+0020-2212"
  />
<missing-glyph horiz-adv-x="494" 
 />
    <glyph glyph-name=".notdef" horiz-adv-x="494" 
 />
    <glyph glyph-name=".null" horiz-adv-x="0" 
 />
    <glyph glyph-name="nonmarkingreturn" horiz-adv-x="333" 
 />
    <glyph glyph-name="space" unicode=" " horiz-adv-x="254" 
 />
    <glyph glyph-name="exclam" unicode="!" 
d="M99 651h126l-8 -462h-111zM162 -10q-29 0 -50 19t-21 46t21 46.5t50 19.5t49.5 -19t20.5 -47q0 -27 -20.5 -46t-49.5 -19z" />
    <glyph glyph-name="quotedbl" unicode="&#x22;" horiz-adv-x="388" 
d="M55 673h120l-8 -263h-105zM212 673h121l-8 -263h-105z" />
    <glyph glyph-name="numbersign" unicode="#" horiz-adv-x="722" 
d="M548 391l-29 -126h115l-21 -98h-117l-40 -167h-117l39 167h-113l-38 -167h-118l39 167h-114l22 98h115l29 126h-113l22 99h115l38 161h117l-37 -161h112l37 161h120l-39 -161h116l-23 -99h-117zM431 391h-114l-29 -126h114z" />
    <glyph glyph-name="dollar" unicode="$" horiz-adv-x="694" 
d="M639 186q0 -81 -57.5 -132t-161.5 -63v-99h-118v99q-67 8 -134 33t-111 54l62 97q51 -35 115.5 -57t125.5 -22q70 0 113.5 22.5t43.5 66.5q0 14 -4.5 24.5t-17 18.5t-22 13.5t-31 11t-31.5 7.5t-37 7l-12 2q-4 0 -12 2q-151 26 -209 66t-58 120q0 173 219 201v101h118
v-99q100 -6 211 -68l-58 -91q-99 53 -196 53q-173 0 -173 -93q0 -33 34.5 -50.5t133.5 -33.5q118 -20 168 -43q99 -48 99 -148z" />
    <glyph glyph-name="percent" unicode="%" horiz-adv-x="971" 
d="M649 662h132l-465 -674h-132zM244 289q-86 0 -142.5 51.5t-56.5 131.5q0 81 56.5 133t142.5 52q87 0 143.5 -52t56.5 -133t-56.5 -132t-143.5 -51zM244 387q40 0 64.5 23.5t24.5 61.5q0 39 -24.5 62t-64.5 23t-63.5 -22.5t-23.5 -62.5q0 -38 23.5 -61.5t63.5 -23.5z
M725 -7q-87 0 -142.5 52t-55.5 133t56 132.5t142 51.5q87 0 143.5 -51.5t56.5 -132.5t-56.5 -133t-143.5 -52zM725 92q40 0 64 23.5t24 62.5q0 38 -24 61.5t-64 23.5q-39 0 -63 -23t-24 -62t24 -62.5t63 -23.5z" />
    <glyph glyph-name="ampersand" unicode="&#x26;" horiz-adv-x="818" 
d="M592 0l-96 85l-32 -32q-63 -65 -170 -65q-93 0 -154.5 51.5t-61.5 131.5q0 95 79 152l42 29l-32 29q-53 47 -53 116q0 71 55 118t139 47q80 0 134 -45t54 -116q0 -82 -67 -128l-46 -33l106 -96l124 129l54 -111l-93 -94l187 -168h-169zM309 554q-33 0 -53 -15.5
t-20 -41.5q0 -27 17 -41l44 -40l58 41q19 15 19 42q0 25 -18 40t-47 15zM410 162l-126 113l-52 -38q-32 -23 -32 -66q0 -34 25 -54.5t68 -20.5q53 0 82 29z" />
    <glyph glyph-name="quotesingle" unicode="'" horiz-adv-x="229" 
d="M55 673h120l-8 -263h-105z" />
    <glyph glyph-name="parenleft" unicode="(" horiz-adv-x="472" 
d="M376 -130l-18 6q-124 48 -197.5 151.5t-73.5 241.5q0 137 78.5 242t210.5 156l41 -100q-98 -40 -153 -118.5t-55 -179.5t55.5 -180t152.5 -119z" />
    <glyph glyph-name="parenright" unicode=")" horiz-adv-x="472" 
d="M55 -30l18 8q88 35 138.5 112.5t50.5 178.5t-55.5 179.5t-151.5 117.5l40 101q133 -50 211 -155.5t78 -242.5q0 -138 -78 -243.5t-211 -155.5z" />
    <glyph glyph-name="asterisk" unicode="*" horiz-adv-x="505" 
d="M336 474l74 -85l-90 -60l-68 90l-67 -90l-90 60l74 85l-114 31l35 96l112 -37l-3 109h108l-4 -109l113 37l34 -96z" />
    <glyph glyph-name="plus" unicode="+" horiz-adv-x="571" 
d="M525 214h-187v-170h-104v170h-189v99h189v170h104v-170h187v-99z" />
    <glyph glyph-name="comma" unicode="," horiz-adv-x="317" 
d="M101 126h128l-61 -263h-100z" />
    <glyph glyph-name="hyphen" unicode="-" horiz-adv-x="433" 
d="M379 313v-98h-324v98h324z" />
    <glyph glyph-name="period" unicode="." horiz-adv-x="326" 
d="M163 -10q-31 0 -52.5 20t-21.5 48q0 29 21 48.5t53 19.5q31 0 52.5 -20t21.5 -48t-21.5 -48t-52.5 -20z" />
    <glyph glyph-name="slash" unicode="/" horiz-adv-x="593" 
d="M433 695h128l-400 -739h-127z" />
    <glyph glyph-name="zero" unicode="0" horiz-adv-x="751" 
d="M376 -12q-129 0 -213.5 92t-84.5 237t84.5 236t213.5 91t213.5 -91.5t84.5 -235.5q0 -145 -84.5 -237t-213.5 -92zM376 96q77 0 127 62t50 159t-50 158.5t-127 61.5t-126.5 -61.5t-49.5 -158.5q0 -98 49.5 -159.5t126.5 -61.5z" />
    <glyph glyph-name="one" unicode="1" horiz-adv-x="385" 
d="M280 634v-634h-118v490l-128 -49v115l203 78h43z" />
    <glyph glyph-name="two" unicode="2" horiz-adv-x="616" 
d="M538 106v-106h-461v66l-9 10l275 252q32 31 46.5 54.5t14.5 52.5q0 47 -30 74.5t-82 27.5q-88 0 -145 -87l-91 66q40 61 103 94.5t135 33.5q102 0 167.5 -56.5t65.5 -154.5q0 -55 -23 -95.5t-75 -88.5l-155 -143h264z" />
    <glyph glyph-name="three" unicode="3" horiz-adv-x="648" 
d="M482 325q88 -51 88 -142q0 -86 -75 -140.5t-196 -54.5q-154 0 -243 101l81 75q60 -68 161 -68q69 0 109.5 24t40.5 65q0 37 -39 60t-106 23h-123v107h120q60 0 95.5 21t35.5 58t-35.5 60t-99.5 23q-96 0 -142 -65l-90 66q36 50 97 78t135 28q113 0 184.5 -52t71.5 -136
q0 -80 -70 -131z" />
    <glyph glyph-name="four" unicode="4" horiz-adv-x="627" 
d="M580 132h-113v-132h-118v132h-306v80l252 422h136l-236 -395h154v196h118v-196h113v-107z" />
    <glyph glyph-name="five" unicode="5" horiz-adv-x="636" 
d="M305 405q117 0 189 -58t72 -150q0 -93 -72 -151t-189 -58q-79 0 -142 32.5t-98 88.5l82 78q55 -91 157 -91q66 0 104 27.5t38 73.5t-38 72.5t-103 26.5t-116 -34l-71 68l17 304h398v-107h-285l-6 -128q28 6 63 6z" />
    <glyph glyph-name="six" unicode="6" horiz-adv-x="661" 
d="M353 421q107 0 174 -58.5t67 -146.5q0 -104 -72.5 -166t-186.5 -62q-113 0 -185.5 62t-72.5 162q0 55 34 108l213 314h141l-142 -215q20 2 30 2zM335 96q63 0 100 31.5t37 86.5q0 44 -37 71.5t-99 27.5q-63 0 -100.5 -28t-37.5 -72q0 -54 37.5 -85.5t99.5 -31.5z" />
    <glyph glyph-name="seven" unicode="7" horiz-adv-x="544" 
d="M517 634v-81l-307 -553h-133l291 527h-340v107h489z" />
    <glyph glyph-name="eight" unicode="8" horiz-adv-x="698" 
d="M533 325q88 -49 88 -142q0 -86 -75.5 -140.5t-194.5 -54.5q-122 0 -197.5 54.5t-75.5 141.5q0 94 87 140q-69 46 -69 132q0 84 70.5 136t182.5 52t182 -52t70 -137q0 -86 -68 -130zM349 537q-62 0 -96.5 -22t-34.5 -60q0 -37 33.5 -58t97.5 -21q62 0 97 20t35 58
q0 37 -34.5 60t-97.5 23zM351 96q68 0 108 24t40 65q0 38 -39.5 60.5t-108.5 22.5q-71 0 -111 -23t-40 -61q0 -40 41 -64t110 -24z" />
    <glyph glyph-name="nine" unicode="9" horiz-adv-x="661" 
d="M325 642q113 0 186.5 -60t73.5 -155q0 -65 -42 -121l-216 -306h-142l151 212q-9 -1 -27 -1q-108 0 -175.5 59.5t-67.5 153.5q0 98 73 158t186 60zM462 426v2q0 47 -37.5 76.5t-99.5 29.5t-100 -29.5t-38 -78.5t36.5 -78t98.5 -29q65 0 102.5 29.5t37.5 77.5z" />
    <glyph glyph-name="colon" unicode=":" horiz-adv-x="326" 
d="M163 349q-31 0 -52.5 20.5t-21.5 48.5q0 29 21.5 48.5t52.5 19.5t52.5 -19.5t21.5 -48.5q0 -28 -21.5 -48.5t-52.5 -20.5zM163 -10q-31 0 -52.5 20t-21.5 48t21.5 48t52.5 20t52.5 -20t21.5 -48t-21.5 -48t-52.5 -20z" />
    <glyph glyph-name="semicolon" unicode=";" horiz-adv-x="321" 
d="M158 349q-30 0 -51.5 20.5t-21.5 48.5q0 29 21 48.5t52 19.5q30 0 52 -19.5t22 -48.5q0 -28 -22.5 -48.5t-51.5 -20.5zM101 126h128l-61 -263h-100z" />
    <glyph glyph-name="less" unicode="&#x3c;" horiz-adv-x="517" 
d="M473 382l-288 -118l288 -117v-116l-430 180v106l430 179v-114z" />
    <glyph glyph-name="equal" unicode="=" horiz-adv-x="571" 
d="M45 400h480v-98h-480v98zM45 227h480v-98h-480v98z" />
    <glyph glyph-name="greater" unicode="&#x3e;" horiz-adv-x="512" 
d="M474 317v-106l-430 -180v116l288 117l-288 118v114z" />
    <glyph glyph-name="question" unicode="?" horiz-adv-x="599" 
d="M239 189v35q0 34 14.5 56t65.5 71l19 19q38 36 50 53t12 40q0 43 -28 67t-79 24q-87 0 -146 -85l-91 65q88 128 239 128q104 0 165 -53.5t61 -148.5q0 -48 -22.5 -82.5t-91.5 -100.5q-37 -36 -46.5 -50.5t-9.5 -37.5h-112zM295 -10q-30 0 -50.5 19t-20.5 46q0 28 20.5 47
t50.5 19q29 0 49.5 -19t20.5 -47q0 -27 -20.5 -46t-49.5 -19z" />
    <glyph glyph-name="at" unicode="@" horiz-adv-x="1050" 
d="M961 274q0 -105 -56.5 -166.5t-161.5 -61.5h-108v22q-46 -32 -138 -32q-98 0 -166.5 63.5t-68.5 159.5q0 98 68.5 160t169.5 62q81 0 131 -34v26h102v-333h8q55 2 83.5 39t28.5 95q0 123 -93 208t-233 85q-144 0 -237.5 -87.5t-93.5 -224.5q0 -139 93.5 -227.5
t240.5 -88.5q116 0 217 75l71 -75q-135 -95 -288 -95q-194 0 -318.5 116.5t-124.5 295.5q0 178 125.5 292t314.5 114q188 0 311 -114t123 -274zM501 131q61 0 98.5 35.5t37.5 92.5t-37.5 92.5t-98.5 35.5q-59 0 -96 -35.5t-37 -92.5t37 -92.5t96 -35.5z" />
    <glyph glyph-name="A" unicode="A" horiz-adv-x="799" 
d="M559 157h-317l-74 -157h-133l305 665h119l305 -665h-133zM511 264l-111 252l-108 -252h219z" />
    <glyph glyph-name="B" unicode="B" horiz-adv-x="750" 
d="M108 0v665h327q105 0 166.5 -51t61.5 -135q0 -38 -14.5 -74t-37.5 -58v-2q20 -21 36 -61t16 -76q0 -84 -63 -146t-165 -62h-327zM228 399h214q99 0 99 80q0 37 -27.5 57.5t-78.5 20.5h-207v-158zM228 108h207q49 0 77.5 30t28.5 70q0 81 -99 81h-214v-181z" />
    <glyph glyph-name="C" unicode="C" horiz-adv-x="866" 
d="M663 219l135 -1q-27 -56 -29 -59q-58 -86 -136.5 -126.5t-186.5 -44.5h-17q-161 2 -264.5 98.5t-103.5 246.5q0 152 106.5 248t270.5 96q120 0 215.5 -62t142.5 -168l-132 -1q-33 57 -92.5 89t-133.5 32q-112 0 -183 -65t-71 -169q0 -63 28 -116q32 -53 89.5 -84.5
t125.5 -34.5h16q69 2 129.5 33t90.5 88z" />
    <glyph glyph-name="D" unicode="D" horiz-adv-x="818" 
d="M380 665q165 0 271 -91t106 -241q0 -151 -106 -242t-271 -91h-272v665h272zM380 109q116 0 185.5 61.5t69.5 162.5t-69.5 162t-185.5 61h-152v-447h152z" />
    <glyph glyph-name="E" unicode="E" horiz-adv-x="693" 
d="M631 108v-108h-523v665h515v-108h-395v-167h340v-108h-340v-174h403z" />
    <glyph glyph-name="F" unicode="F" horiz-adv-x="678" 
d="M228 0h-120v665h515v-108h-395v-167h340v-108h-340v-282z" />
    <glyph glyph-name="G" unicode="G" horiz-adv-x="853" 
d="M814 318q-4 -98 -56 -177l-3 -3q-20 -28 -37 -42q-4 -5 -5 -6q-78 -75 -204 -97l-19 -3q-13 0 -33 -2h-28q-161 2 -264.5 98.5t-103.5 246.5q0 152 106.5 248t270.5 96q120 0 215.5 -62t142.5 -168l-132 -1q-33 57 -92.5 89t-133.5 32q-112 0 -183 -65t-71 -169
q0 -63 28 -116q32 -53 89.5 -84.5t125.5 -34.5h11q113 0 189 70l1 2q38 40 54 93l-262 1v106h390l2 -18q2 -14 2 -34z" />
    <glyph glyph-name="H" unicode="H" horiz-adv-x="825" 
d="M717 665v-665h-121v282h-368v-282h-120v665h120v-275h368v275h121z" />
    <glyph glyph-name="I" unicode="I" horiz-adv-x="337" 
d="M228 0h-120v665h120v-665z" />
    <glyph glyph-name="J" unicode="J" horiz-adv-x="700" 
d="M482 665h119v-363q0 -71 -14 -125.5t-45.5 -98t-88 -67t-135.5 -23.5q-266 0 -283 293h118q7 -98 45.5 -140.5t119.5 -42.5q88 0 126 46.5t38 157.5v363z" />
    <glyph glyph-name="K" unicode="K" horiz-adv-x="768" 
d="M324 278l-96 -98v-180h-120v665h120v-319l318 319h160l-299 -303l326 -362h-156z" />
    <glyph glyph-name="L" unicode="L" horiz-adv-x="632" 
d="M596 108v-108h-488v665h120v-557h368z" />
    <glyph glyph-name="M" unicode="M" horiz-adv-x="977" 
d="M869 0h-120v466l-204 -398h-113l-204 399v-467h-120v665h152l228 -448l229 448h152v-665z" />
    <glyph glyph-name="N" unicode="N" horiz-adv-x="806" 
d="M697 665v-665h-102l-367 459v-459h-120v665h103l366 -458v458h120z" />
    <glyph glyph-name="O" unicode="O" horiz-adv-x="875" 
d="M438 -12q-164 0 -270.5 96.5t-106.5 248.5t106.5 248t270.5 96t270 -96.5t106 -247.5q0 -152 -106 -248.5t-270 -96.5zM438 98q112 0 182.5 65.5t70.5 169.5t-70 169t-183 65q-112 0 -183 -65t-71 -169q0 -105 70.5 -170t183.5 -65z" />
    <glyph glyph-name="P" unicode="P" horiz-adv-x="720" 
d="M228 291l-1 -292h-119v665h327q105 0 166.5 -51t61.5 -135q0 -82 -62 -134.5t-166 -52.5h-207zM228 399h207q50 0 78 21.5t28 58.5t-27.5 57.5t-78.5 20.5h-207v-158z" />
    <glyph glyph-name="Q" unicode="Q" horiz-adv-x="899" 
d="M814 333q0 -167 -126 -264l62 -97l-105 -56l-60 97q-77 -25 -147 -25q-164 0 -270.5 96.5t-106.5 248.5t106.5 248t270.5 96t270 -96.5t106 -247.5zM438 98q49 0 85 11l-95 147l104 56l93 -146q66 68 66 167q0 104 -70 169t-183 65q-112 0 -183 -65t-71 -169
q0 -105 70.5 -170t183.5 -65z" />
    <glyph glyph-name="R" unicode="R" horiz-adv-x="725" 
d="M465 292l226 -292h-153l-215 291h-95l-1 -292h-119v665h327q105 0 166.5 -51t61.5 -135q0 -77 -52.5 -128t-145.5 -58zM228 557v-158h207q50 0 78 21.5t28 58.5t-27.5 57.5t-78.5 20.5h-207z" />
    <glyph glyph-name="S" unicode="S" horiz-adv-x="724" 
d="M368 -12q-85 0 -171.5 28.5t-139.5 65.5l70 86q103 -70 242 -70q72 0 116 23.5t44 66.5q0 18 -9.5 31.5t-21.5 21.5t-35.5 15t-40 10t-45.5 8l-10 1q-2 1 -5 1t-4 1q-154 26 -213.5 69t-59.5 120q0 59 26.5 102t71 65.5t93.5 33t104 10.5q130 0 276 -81l-74 -85
q-102 56 -204 56q-83 0 -126.5 -25t-43.5 -70q0 -36 37 -55t135 -32q33 -5 46.5 -7.5t48.5 -10.5t53.5 -16t46 -23.5t42 -33.5t25.5 -45t11 -59q0 -91 -77.5 -146.5t-207.5 -55.5z" />
    <glyph glyph-name="T" unicode="T" horiz-adv-x="664" 
d="M630 557h-237v-557h-121v557h-237v108h595v-108z" />
    <glyph glyph-name="U" unicode="U" horiz-adv-x="801" 
d="M401 -12q-164 0 -233.5 82.5t-69.5 231.5v363h124v-363q0 -110 41.5 -157t137.5 -47q95 0 136.5 47t41.5 157v363h124v-363q0 -71 -14.5 -125.5t-48 -98t-94 -67t-145.5 -23.5z" />
    <glyph glyph-name="V" unicode="V" horiz-adv-x="775" 
d="M739 665l-293 -665h-117l-294 665h133l219 -510l219 510h133z" />
    <glyph glyph-name="W" unicode="W" horiz-adv-x="1158" 
d="M1123 665l-241 -665h-128l-175 491l-176 -491h-128l-240 665h130l174 -503l178 503h122l178 -501l175 501h131z" />
    <glyph glyph-name="X" unicode="X" horiz-adv-x="775" 
d="M587 0l-199 253l-200 -253h-153l276 341l-263 324h151l188 -239l189 239h152l-264 -324l276 -341h-153z" />
    <glyph glyph-name="Y" unicode="Y" horiz-adv-x="780" 
d="M451 269v-269h-120v269l-296 396h150l206 -286l205 286h150z" />
    <glyph glyph-name="Z" unicode="Z" horiz-adv-x="675" 
d="M618 582l-389 -474h382v-108h-554v83l389 474h-377v108h549v-83z" />
    <glyph glyph-name="bracketleft" unicode="[" horiz-adv-x="410" 
d="M226 545v-552h150v-107h-268v765h268v-106h-150z" />
    <glyph glyph-name="backslash" unicode="\" horiz-adv-x="593" 
d="M34 695h127l400 -739h-128z" />
    <glyph glyph-name="bracketright" unicode="]" horiz-adv-x="410" 
d="M301 -114h-267v107h149v552h-149v106h267v-765z" />
    <glyph glyph-name="underscore" unicode="_" horiz-adv-x="586" 
d="M531 -120h-476v99h476v-99z" />
    <glyph glyph-name="a" unicode="a" horiz-adv-x="687" 
d="M599 476v-476h-108v26q-51 -38 -157 -38q-110 0 -186.5 70.5t-76.5 179.5t76.5 179t189.5 70q92 0 150 -41v30h112zM340 91q69 0 111.5 40t42.5 107t-42.5 107.5t-111.5 40.5t-111.5 -41t-42.5 -107t42.5 -106.5t111.5 -40.5z" />
    <glyph glyph-name="b" unicode="b" horiz-adv-x="672" 
d="M351 487q114 0 190.5 -69.5t76.5 -179.5q0 -109 -76 -179.5t-187 -70.5q-93 0 -158 55v-43h-108v695h112v-254q62 46 150 46zM348 91q69 0 112 40.5t43 106.5t-43 107t-112 41t-111.5 -40.5t-42.5 -107.5t42.5 -107t111.5 -40z" />
    <glyph glyph-name="c" unicode="c" horiz-adv-x="594" 
d="M327 -12q-118 0 -194.5 70t-76.5 180q0 109 77 179t194 70q120 0 209 -84l-80 -75q-53 58 -129 58q-70 0 -113 -41t-43 -107t43 -106.5t114 -40.5q74 0 133 60l78 -76q-95 -87 -212 -87z" />
    <glyph glyph-name="d" unicode="d" horiz-adv-x="673" 
d="M322 487q92 0 150 -46v254h112v-695h-108v42q-62 -54 -158 -54q-109 0 -185.5 70.5t-76.5 179.5t76.5 179t189.5 70zM326 91q69 0 111.5 40.5t42.5 106.5t-42.5 107t-111.5 41t-111.5 -41t-42.5 -107t42 -106.5t112 -40.5z" />
    <glyph glyph-name="e" unicode="e" horiz-adv-x="621" 
d="M566 268q0 -31 -11 -75h-380q14 -49 53.5 -76.5t97.5 -27.5q78 0 148 62l71 -76q-97 -87 -218 -87q-119 0 -195 70t-76 182q0 109 73.5 178t190.5 69q116 0 181 -64.5t65 -154.5zM319 387q-56 0 -93 -24.5t-50 -70.5h272q-6 42 -40 68.5t-89 26.5z" />
    <glyph glyph-name="f" unicode="f" horiz-adv-x="458" 
d="M245 476h185v-99h-185v-377h-112v377h-108v99h108v56q0 174 191 174q78 0 142 -47l-56 -85q-41 29 -88 29q-40 0 -58.5 -17t-18.5 -54v-56z" />
    <glyph glyph-name="g" unicode="g" horiz-adv-x="615" 
d="M538 386h-45q18 -36 18 -78q0 -81 -60.5 -130t-159.5 -49q-43 0 -75 8h-5q-36 0 -36 -23q0 -22 41 -22h85q134 0 197.5 -37.5t63.5 -116.5q0 -81 -64 -124.5t-194 -43.5q-128 0 -198.5 46t-70.5 118q0 68 57 103q-30 32 -30 76q0 58 50 85q-40 45 -40 110q0 79 61 128
t158 51q46 0 84 -11h195zM291 229q51 0 79 20.5t28 58.5q0 36 -28.5 57.5t-78.5 21.5t-78.5 -21t-28.5 -58q0 -38 28 -58.5t79 -20.5zM449 -62q0 29 -32.5 40.5t-115.5 11.5h-104q-47 -17 -47 -53q0 -66 154 -66q145 0 145 67z" />
    <glyph glyph-name="h" unicode="h" horiz-adv-x="644" 
d="M346 487q93 0 153.5 -54.5t60.5 -143.5v-289h-112v281q0 49 -31 77t-84 28t-92.5 -29.5t-39.5 -79.5v-277h-112v695h112v-242q48 34 145 34z" />
    <glyph glyph-name="i" unicode="i" horiz-adv-x="320" 
d="M160 513q-30 0 -50.5 19t-20.5 47t20.5 46.5t50.5 18.5q29 0 50 -19t21 -46t-21 -46.5t-50 -19.5zM215 0h-112v476h112v-476z" />
    <glyph glyph-name="j" unicode="j" horiz-adv-x="322" 
d="M163 514q-28 0 -49.5 19t-21.5 46t21.5 46t49.5 19q30 0 50 -18.5t20 -46.5t-20.5 -46.5t-49.5 -18.5zM56 -230q-58 0 -114 31l58 88q35 -18 55 -18q49 0 49 48v557h115v-557q0 -149 -163 -149z" />
    <glyph glyph-name="k" unicode="k" horiz-adv-x="605" 
d="M275 193l-74 -69v-124h-112v695h112v-427l221 208h158l-226 -212l224 -264h-141z" />
    <glyph glyph-name="l" unicode="l" horiz-adv-x="290" 
d="M89 695h112v-695h-112v695z" />
    <glyph glyph-name="m" unicode="m" horiz-adv-x="973" 
d="M681 487q92 0 150 -55t58 -143v-289h-112v281q0 49 -28.5 77t-76.5 28q-52 0 -89.5 -30t-37.5 -79v-277h-111v281q0 47 -29 75t-76 30q-51 -3 -89.5 -32.5t-38.5 -76.5v-277h-112v476h112v-23q46 31 128 34h10q108 0 167 -76q63 76 175 76z" />
    <glyph glyph-name="n" unicode="n" horiz-adv-x="644" 
d="M346 487q93 0 153.5 -54.5t60.5 -143.5v-289h-112v281q0 49 -31 77t-84 28t-92.5 -29.5t-39.5 -79.5v-277h-112v476h112v-23q48 34 145 34z" />
    <glyph glyph-name="o" unicode="o" horiz-adv-x="652" 
d="M326 -12q-117 0 -193.5 70t-76.5 180t76.5 179.5t193.5 69.5t194.5 -70t77.5 -179q0 -110 -77.5 -180t-194.5 -70zM326 91q69 0 112.5 40.5t43.5 106.5t-43 107t-113 41t-112.5 -41t-42.5 -107t42.5 -106.5t112.5 -40.5z" />
    <glyph glyph-name="p" unicode="p" horiz-adv-x="672" 
d="M351 -12q-87 0 -150 47v-265h-112v706h108v-43q62 54 158 54q111 0 187 -70.5t76 -179.5q0 -110 -76.5 -179.5t-190.5 -69.5zM348 386q-69 0 -111.5 -40.5t-42.5 -107.5t42.5 -107t111.5 -40t112 40.5t43 106.5t-43 107t-112 41z" />
    <glyph glyph-name="q" unicode="q" horiz-adv-x="673" 
d="M322 -12q-113 0 -189.5 70t-76.5 179t76.5 179.5t185.5 70.5q96 0 158 -54v43h108v-706h-112v265q-62 -47 -150 -47zM326 386q-69 0 -111.5 -41t-42.5 -107t42 -106.5t112 -40.5q69 0 111.5 40.5t42.5 106.5t-42.5 107t-111.5 41z" />
    <glyph glyph-name="r" unicode="r" horiz-adv-x="460" 
d="M433 462l-13 -41l-16 -51l-20 8q-22 8 -51 8q-53 0 -92.5 -29.5t-39.5 -79.5v-277h-112v476h112v-23q48 34 145 34q40 0 90 -15z" />
    <glyph glyph-name="s" unicode="s" horiz-adv-x="554" 
d="M281 -12q-58 0 -123.5 19t-109.5 51l56 86q31 -22 82.5 -37.5t95.5 -15.5q110 0 110 50q0 11 -8 18.5t-28.5 13.5t-35 9t-46.5 9q-107 18 -153 47t-46 95q0 43 19.5 74t52.5 48t70 24.5t78 7.5q112 0 208 -59l-56 -85q-74 43 -154 43q-104 0 -104 -51q0 -16 19.5 -24
t81.5 -19q45 -8 69 -13t57 -16t49 -25t28.5 -38t12.5 -56q0 -74 -61.5 -115t-163.5 -41z" />
    <glyph glyph-name="t" unicode="t" horiz-adv-x="490" 
d="M430 20l-18 -8q-46 -24 -108 -24q-92 0 -140.5 44.5t-48.5 129.5v215h-101v99h101v135h112v-135h207v-99h-207v-215q0 -71 76 -71q43 0 80 16z" />
    <glyph glyph-name="u" unicode="u" horiz-adv-x="638" 
d="M296 -12q-93 0 -152.5 54.5t-59.5 144.5v289h112v-282q0 -49 30 -76t85 -27q53 0 92.5 29.5t39.5 79.5v276h111v-476h-111v23q-51 -35 -147 -35z" />
    <glyph glyph-name="v" unicode="v" horiz-adv-x="608" 
d="M584 476l-225 -476h-109l-226 476h125l155 -338l155 338h125z" />
    <glyph glyph-name="w" unicode="w" horiz-adv-x="876" 
d="M852 476l-183 -476h-115l-116 320l-116 -320h-115l-183 476h121l120 -322l117 322h112l117 -322l120 322h121z" />
    <glyph glyph-name="x" unicode="x" horiz-adv-x="614" 
d="M446 0l-138 166l-139 -166h-145l210 242l-202 234h143l133 -157l131 157h146l-204 -234l209 -242h-144z" />
    <glyph glyph-name="y" unicode="y" horiz-adv-x="600" 
d="M576 476l-325 -706h-115l111 249l-223 457h125l156 -327l146 327h125z" />
    <glyph glyph-name="z" unicode="z" horiz-adv-x="524" 
d="M473 99v-99h-433v78l269 299h-260v99h421v-78l-271 -299h274z" />
    <glyph glyph-name="braceleft" unicode="{" horiz-adv-x="467" 
d="M300 383q0 -75 -48 -113q48 -38 48 -114v-100q0 -72 75 -72q16 0 58 7v-107q-38 -8 -65 -8q-91 0 -139 44.5t-48 129.5v100q0 67 -68 67h-37v106h37q36 0 52 16t16 51v99q0 85 48 129t139 44q21 0 41 -2l24 -3v-111q-37 8 -58 8q-40 0 -57.5 -17.5t-17.5 -53.5v-100z" />
    <glyph glyph-name="braceright" unicode="}" horiz-adv-x="467" 
d="M391 323v-106h-37q-69 0 -69 -67v-100q0 -85 -48 -129.5t-138 -44.5q-27 0 -65 8v107q41 -7 58 -7q39 0 56 18t17 54v100q0 76 50 114q-50 38 -50 113v100q0 36 -17 53.5t-56 17.5q-23 0 -58 -8v110l22 4q22 2 43 2q90 0 138 -44t48 -129v-99q0 -35 16.5 -51t52.5 -16h37
z" />
    <glyph glyph-name="asciitilde" unicode="~" horiz-adv-x="554" 
d="M45 236l4 18q13 53 46.5 85.5t85.5 32.5q34 0 103 -28l34 -13q40 -15 51 -15q4 0 6 1q20 4 32 61l101 -32q-33 -136 -135 -136q-38 0 -102 28l-33 13q-36 15 -50 15q-12 0 -21 -11t-13 -21.5t-9 -30.5z" />
    <glyph glyph-name="exclamdown" unicode="&#xa1;" 
d="M162 355q-29 0 -50 19.5t-21 45.5q0 28 21 46.5t50 18.5t49.5 -18.5t20.5 -46.5q0 -26 -21 -45.5t-49 -19.5zM106 288h111l8 -463h-126z" />
    <glyph glyph-name="cent" unicode="&#xa2;" horiz-adv-x="616" 
d="M550 82l-13 -15q-58 -64 -153 -76v-91h-112v96q-91 18 -146 83.5t-55 158.5q0 94 54.5 159t146.5 83v95h112v-91q91 -9 163 -87l-75 -72q-58 61 -130 61q-68 0 -111.5 -41t-43.5 -107t43 -106.5t112 -40.5q74 0 132 64z" />
    <glyph glyph-name="sterling" unicode="&#xa3;" horiz-adv-x="659" 
d="M256 106h336v-106h-537v106h82v166h-82v107h82v56q0 101 71 164.5t180 63.5q129 0 215 -103l-97 -62q-47 56 -118 56q-58 0 -95 -32.5t-37 -86.5v-56h258v-107h-258v-166z" />
    <glyph glyph-name="yen" unicode="&#xa5;" horiz-adv-x="765" 
d="M527 379h109v-99h-181l-13 -17v-31h194v-99h-194v-133h-117v133h-195v99h195v30l-14 18h-181v99h107l-202 272h148l200 -280l201 280h147z" />
    <glyph glyph-name="copyright" unicode="&#xa9;" horiz-adv-x="918" 
d="M458 -12q-160 0 -265 95t-105 243t105 242t265 94q161 0 266 -94t105 -242t-105 -243t-266 -95zM458 80q118 0 194 68.5t76 177.5q0 108 -76 176.5t-194 68.5q-116 0 -192 -69t-76 -176q0 -109 75 -177.5t193 -68.5zM461 131q-92 0 -151.5 55t-59.5 140t60 140t152 55
q54 0 101.5 -27t78.5 -73l-82 -53q-40 61 -98 61q-48 0 -78.5 -29t-30.5 -74q0 -46 30 -75t78 -29q63 0 102 62l83 -51q-32 -48 -81 -75t-104 -27z" />
    <glyph glyph-name="registered" unicode="&#xae;" horiz-adv-x="593" 
d="M298 657q109 0 180.5 -65t71.5 -167q0 -101 -71.5 -166t-180.5 -65q-110 0 -182 65t-72 166q0 102 72 167t182 65zM426 317q43 43 43 108q0 69 -48 112.5t-123 43.5q-55 0 -96 -23h108q46 0 74 -24t28 -63q0 -56 -49 -77zM125 425q0 -77 59 -122v243q-59 -43 -59 -121z
M265 457h45q21 0 21 14q0 12 -21 12h-45v-26zM200 293q43 -24 98 -24q53 0 96 24h-52l-70 90h-7v-90h-65z" />
    <glyph glyph-name="periodcentered" unicode="&#xb7;" horiz-adv-x="326" 
d="M163 216q-31 0 -52.5 20t-21.5 48t21.5 48.5t52.5 20.5t52.5 -20.5t21.5 -48.5t-21.5 -48t-52.5 -20z" />
    <glyph glyph-name="questiondown" unicode="&#xbf;" horiz-adv-x="599" 
d="M305 355q-30 0 -50.5 19t-20.5 46q0 28 20 46.5t51 18.5q29 0 49.5 -18.5t20.5 -46.5q0 -26 -20.5 -45.5t-49.5 -19.5zM304 -186q-104 0 -165 54t-61 148q0 49 21.5 81.5t93.5 102.5q39 37 47.5 50.5t8.5 37.5h112v-31q0 -39 -12.5 -59t-67.5 -74l-8 -7q-6 -6 -9 -8
q-39 -37 -51.5 -54.5t-12.5 -41.5q0 -42 28.5 -67t79.5 -25q86 0 146 87l89 -66q-89 -128 -239 -128z" />
    <glyph glyph-name="multiply" unicode="&#xd7;" horiz-adv-x="556" 
d="M55 130l147 133l-147 134l75 70l149 -134l148 134l76 -70l-149 -134l149 -133l-76 -68l-148 133l-149 -134z" />
    <glyph glyph-name="divide" unicode="&#xf7;" horiz-adv-x="571" 
d="M286 349q-29 0 -50 20t-21 46q0 28 21 47t50 19t50 -19.5t21 -46.5q0 -26 -21.5 -46t-49.5 -20zM45 313h480v-99h-480v99zM286 46q-29 0 -50 20t-21 47q0 26 21 45.5t50 19.5t50 -19.5t21 -45.5q0 -27 -21 -47t-50 -20z" />
    <glyph glyph-name="endash" unicode="&#x2013;" horiz-adv-x="577" 
d="M523 313v-98h-468v98h468z" />
    <glyph glyph-name="emdash" unicode="&#x2014;" horiz-adv-x="908" 
d="M853 313v-98h-798v98h798z" />
    <glyph glyph-name="quoteleft" unicode="&#x2018;" 
d="M150 673h100l-33 -263h-128z" />
    <glyph glyph-name="quoteright" unicode="&#x2019;" 
d="M106 673h127l-60 -263h-101z" />
    <glyph glyph-name="quotesinglbase" unicode="&#x201a;" 
d="M106 126h127l-60 -263h-101z" />
    <glyph glyph-name="quotedblleft" unicode="&#x201c;" horiz-adv-x="498" 
d="M150 673h100l-33 -263h-128zM327 673h98l-33 -263h-128z" />
    <glyph glyph-name="quotedblright" unicode="&#x201d;" horiz-adv-x="498" 
d="M106 673h127l-60 -263h-101zM281 673h127l-61 -263h-98z" />
    <glyph glyph-name="quotedblbase" unicode="&#x201e;" horiz-adv-x="498" 
d="M106 126h127l-60 -263h-101zM281 126h127l-61 -263h-98z" />
    <glyph glyph-name="bullet" unicode="&#x2022;" horiz-adv-x="437" 
d="M219 148q-54 0 -92 35t-38 84t38 83.5t92 34.5t91.5 -34.5t37.5 -83.5q0 -50 -37.5 -84.5t-91.5 -34.5z" />
    <glyph glyph-name="ellipsis" unicode="&#x2026;" horiz-adv-x="710" 
d="M145 -10q-31 0 -52 19.5t-21 48.5t21 48.5t52 19.5t52.5 -20t21.5 -48t-21.5 -48t-52.5 -20zM354 -10q-30 0 -51 20t-21 48q0 29 20 48.5t52 19.5q30 0 52.5 -20t22.5 -48t-22.5 -48t-52.5 -20zM563 -10q-31 0 -52 19.5t-21 48.5t21 48.5t52 19.5q30 0 52.5 -20t22.5 -48
t-22.5 -48t-52.5 -20z" />
    <glyph glyph-name="Euro" unicode="&#x20ac;" horiz-adv-x="779" 
d="M711 108l-14 -14q-94 -106 -244 -106q-112 0 -196 58t-118 157h-95v99h75v24q0 2 -0.5 11.5t0.5 11.5h-75v100h95q35 98 119.5 155.5t195.5 57.5q149 0 250 -118l-83 -79q-76 89 -168 89q-60 0 -108 -28t-76 -77h281v-100h-309q-1 -7 -1 -23q0 -13 1 -24h309v-99h-282
q28 -49 76 -77.5t109 -28.5q96 0 172 84z" />
    <glyph glyph-name="minus" unicode="&#x2212;" horiz-adv-x="571" 
d="M45 313h480v-99h-480v99z" />
    <glyph glyph-name="a.alt" horiz-adv-x="622" 
d="M319 487q104 0 159 -50t55 -148v-289h-106v44q-68 -56 -167 -56q-78 0 -133.5 42.5t-55.5 116.5q0 41 18.5 72.5t50 50t69 27.5t78.5 9q69 0 136 -16q0 47 -29.5 71.5t-83.5 24.5q-85 0 -167 -56l-51 82q99 75 227 75zM272 92q54 0 98.5 29t51.5 73q-60 16 -124 16
q-112 0 -112 -61q0 -27 23.5 -42t62.5 -15z" />
    <glyph glyph-name="_FSHallmark" horiz-adv-x="980" 
d="M92 784h819v-96h-819v96zM805 505q0 10 -7 22q-9 10 -18 17q-16 8 -23 10q-3 0 -11.5 1.5t-12.5 1.5q-25 0 -47 -12q-20 -13 -20 -29q0 -30 18 -40q25 -13 44 -17l65 -15q17 -6 29 -7q5 -1 24 -6q3 -2 10.5 -5.5t10.5 -5.5q21 -13 31 -27q11 -18 12 -43q1 -26 -10 -49
q-25 -41 -72 -58q-48 -15 -93 -15q-39 0 -67 9q-26 7 -57 27q-25 18 -42 47q-15 27 -15 64l95 -2q0 -5 4 -14q2 -15 14 -26q11 -11 25 -17q17 -9 46 -9q32 0 52 12q20 9 20 25q0 30 -78 46q-74 18 -120 43q-49 26 -49 82q0 48 32 74q31 25 72 39q34 8 68 8q48 0 93 -18
q44 -18 65 -65q11 -27 11 -48h-99zM200 228h-108v407h345v-93h-237v-91h197v-91h-197v-132zM428 277q0 21 14 35q13 13 35 13q20 0 39 -14q16 -13 16 -34q0 -19 -16 -34q-17 -13 -39 -13q-19 0 -34 15q-15 13 -15 32zM90 177h820v-97h-820v97z" />
    <glyph glyph-name="_Fontastica" horiz-adv-x="980" 
d="M283 147h-113q-1 2 -1 5v664h497v-102h-383v-273h384v-103h-384v-191zM355 626h385v190h113v-667h-498v101h385v273h-385v103zM740 82q-7 -4 -7 -10q0 -9 5 -14q4 -6 12 -6q9 0 18 6l6 -6q-9 -11 -24 -11q-10 0 -21 6q-6 7 -9 21q-1 13 8 22q10 10 22 10q14 0 24 -10
l-6 -8q-1 1 -3 2.5t-3 2.5q-1 2 -9 2h-3q-9 -4 -10 -7zM170 99h42v-10h-27v-16h26v-9h-26v-22h-15v57zM264 99q18 0 29 -15q8 -11 2 -26q-6 -16 -25 -17l-7 -3q-8 0 -12 4q-18 8 -18 25q0 15 9 23q6 9 22 9zM374 42h-3q-2 -1 -4 -1q-5 0 -9 6l-6 8q0 2 -2 4.5t-3 3.5l-12 14
v-35h-13v57h11q4 -1 6 -8q9 -9 13 -14q1 -2 5 -8l6 -9v39h11v-57zM399 99h48v-10h-18v-47h-12v47h-18v10zM577 72q12 -2 12 -13q1 -12 -10 -17q-2 -1 -11 -1q-19 0 -27 9q1 1 1 2l1 2q0 2 2 4l18 -6h8q4 6 4 3q0 9 -13 12q-2 0 -3 1t-5 1q-9 3 -9 13q-3 9 8 15q6 2 13 2
q14 0 23 -5l-5 -10q-2 1 -4 1q-1 0 -3 1q-1 1 -4 1q-1 0 -2 2h-8q-4 0 -4 -4q-2 -2 4 -8q6 -1 14 -5zM608 99h50v-10h-18v-47h-13v47h-19v10zM681 99h15v-57h-15v57zM832 99l12 -27q0 -2 6 -16q4 -10 7 -14h-13l-5 12h-28l-5 -12h-13q15 29 23 57h16zM497 97q2 -6 6 -13
q2 -2 4 -7t3 -6q0 -2 2 -7t3 -8t3 -7.5t2 -6.5h-13q-1 1 -1 5l-1 2q-1 1 -1.5 2t-0.5 3h-26q-1 -2 -1 -7q-1 -1 -1 -2l-3 -3h-12l24 55h13zM281 71q0 8 -4 13q-7 5 -14 5q-2 -2 -4 -2q-6 -1 -11 -9q-6 -7 -1 -14q4 -13 17 -13q4 0 5 1q12 3 12 17v2zM499 64q-1 0 -1 2t-1 3
t-2 3l-1 2q-1 2 -1 6q-1 1 -2 3l-1 2l-10 -21h19zM833 64q-1 1 -1 5q-2 5 -3 5q-1 1 -1 3t-1 3l-1 2q-1 2 -2 3l-9 -21h18z" />
    </font>
</defs>
</svg>
