<?xml version="1.0" standalone="no"?>
<!DOCTYPE svg PUBLIC "-//W3C//DTD SVG 1.1//EN" "http://www.w3.org/Graphics/SVG/1.1/DTD/svg11.dtd" >
<svg xmlns="http://www.w3.org/2000/svg" xmlns:xlink="http://www.w3.org/1999/xlink" version="1.1">
<metadata>
Created by FontForge 20170731 at Sat Apr 13 17:09:59 2019
 By Aleksey,,,
Copyright (c) 2019 by Fontastica. All rights reserved.
</metadata>
<defs>
<font id="Brooklyn-Heavy" horiz-adv-x="340" >
  <font-face 
    font-family="Brooklyn Heavy"
    font-weight="900"
    font-stretch="normal"
    units-per-em="1000"
    panose-1="0 0 10 0 0 0 0 0 0 0"
    ascent="800"
    descent="-200"
    x-height="476"
    cap-height="665"
    bbox="-58 -221 1119 816"
    underline-thickness="50"
    underline-position="-200"
    unicode-range="U+0020-2212"
  />
<missing-glyph horiz-adv-x="479" 
 />
    <glyph glyph-name=".notdef" horiz-adv-x="479" 
 />
    <glyph glyph-name=".null" horiz-adv-x="0" 
 />
    <glyph glyph-name="nonmarkingreturn" horiz-adv-x="333" 
 />
    <glyph glyph-name="space" unicode=" " horiz-adv-x="244" 
 />
    <glyph glyph-name="exclam" unicode="!" horiz-adv-x="337" 
d="M99 644h141l-8 -463h-126zM169 -10q-32 0 -55 21.5t-23 51.5t23 51.5t55 21.5t54.5 -21t22.5 -52q0 -30 -22.5 -51.5t-54.5 -21.5z" />
    <glyph glyph-name="quotedbl" unicode="&#x22;" horiz-adv-x="397" 
d="M55 665h136l-9 -272h-120zM206 665h136l-8 -272h-120z" />
    <glyph glyph-name="numbersign" unicode="#" horiz-adv-x="720" 
d="M547 375l-23 -101h110l-24 -114h-113l-38 -160h-133l38 160h-88l-36 -160h-134l37 160h-109l26 114h110l23 101h-108l25 115h111l36 154h133l-36 -154h87l36 154h136l-38 -154h111l-26 -115h-113zM415 375h-89l-23 -101h88z" />
    <glyph glyph-name="dollar" unicode="$" horiz-adv-x="694" 
d="M296 -104v97q-64 9 -129 34.5t-110 54.5l70 110q51 -36 114 -58t120 -22q63 0 102 19t39 56q0 16 -9.5 27.5t-31.5 19.5t-39 12t-49 10l-11 2q-6 0 -12 2q-146 27 -205 68t-59 120q0 173 210 202v98h133v-96q93 -8 206 -71l-66 -104q-100 54 -191 54q-156 0 -156 -79
q0 -27 31 -41.5t121 -29.5q27 -4 35 -5.5t36.5 -7t41 -9.5t37.5 -13t37 -18t30 -23.5t26.5 -31t15 -38.5t6.5 -47q0 -81 -54.5 -131.5t-155.5 -63.5v-97h-133z" />
    <glyph glyph-name="percent" unicode="%" horiz-adv-x="955" 
d="M629 655h151l-460 -667h-151zM246 277q-86 0 -143.5 52t-57.5 134t57.5 134.5t143.5 52.5q88 0 145 -52.5t57 -134.5t-57 -134t-145 -52zM246 391q34 0 54.5 20t20.5 52t-20.5 51.5t-54.5 19.5t-54 -19t-20 -52q0 -32 20 -52t54 -20zM707 -7q-87 0 -143.5 52.5
t-56.5 135.5q0 82 56.5 134t143.5 52t144.5 -52.5t57.5 -133.5q0 -83 -57 -135.5t-145 -52.5zM707 108q34 0 54.5 20t20.5 53q0 32 -20.5 51.5t-54.5 19.5q-33 0 -53 -19t-20 -52t20 -53t53 -20z" />
    <glyph glyph-name="ampersand" unicode="&#x26;" horiz-adv-x="826" 
d="M295 -12q-94 0 -155.5 52.5t-61.5 133.5q0 96 80 154l30 21l-21 19q-54 48 -54 119q0 72 55.5 120t140.5 48q81 0 135.5 -46.5t54.5 -118.5q0 -83 -69 -131l-34 -24l86 -77l122 127l61 -126l-87 -87l191 -172h-192l-88 78l-24 -24q-64 -66 -170 -66zM299 422l49 34
q14 12 14 33q0 19 -14.5 30.5t-37.5 11.5q-27 0 -43.5 -12t-16.5 -32q0 -23 12 -32zM294 112q45 0 72 25l26 28l-107 96l-43 -32q-27 -18 -27 -55q0 -28 21.5 -45t57.5 -17z" />
    <glyph glyph-name="quotesingle" unicode="'" horiz-adv-x="245" 
d="M55 665h136l-9 -272h-120z" />
    <glyph glyph-name="parenleft" unicode="(" horiz-adv-x="482" 
d="M380 -127l-26 9q-123 47 -195 149t-72 237t79.5 239.5t213.5 155.5l47 -115q-95 -38 -149 -112t-54 -168t54 -168.5t149 -112.5z" />
    <glyph glyph-name="parenright" unicode=")" horiz-adv-x="481" 
d="M55 -14l26 12q82 33 128.5 104.5t46.5 165.5t-53.5 167.5t-147.5 111.5l46 116q134 -51 213 -155.5t79 -239.5q0 -136 -79 -240.5t-213 -155.5z" />
    <glyph glyph-name="asterisk" unicode="*" horiz-adv-x="515" 
d="M356 459l68 -78l-104 -69l-63 83l-62 -83l-104 69l68 78l-104 29l41 111l103 -34l-3 100h124l-4 -100l104 34l40 -112z" />
    <glyph glyph-name="plus" unicode="+" horiz-adv-x="571" 
d="M525 205h-179v-163h-120v163h-181v115h181v163h120v-163h179v-115z" />
    <glyph glyph-name="comma" unicode="," horiz-adv-x="334" 
d="M102 141h144l-63 -272h-115z" />
    <glyph glyph-name="hyphen" unicode="-" horiz-adv-x="440" 
d="M386 320v-114h-331v114h331z" />
    <glyph glyph-name="period" unicode="." 
d="M170 -10q-34 0 -57.5 22t-23.5 54t23 53.5t58 21.5q34 0 57.5 -22t23.5 -53q0 -32 -23.5 -54t-57.5 -22z" />
    <glyph glyph-name="slash" unicode="/" horiz-adv-x="605" 
d="M427 687h146l-394 -729h-145z" />
    <glyph glyph-name="zero" unicode="0" horiz-adv-x="747" 
d="M374 -12q-128 0 -212 91t-84 235t83.5 234t212.5 90q128 0 212 -90.5t84 -233.5t-84 -234.5t-212 -91.5zM374 112q69 0 114.5 56.5t45.5 145.5t-45.5 145t-114.5 56q-70 0 -114.5 -56t-44.5 -145q0 -90 44.5 -146t114.5 -56z" />
    <glyph glyph-name="one" unicode="1" horiz-adv-x="395" 
d="M290 628v-628h-133v465l-123 -47v132l203 78h53z" />
    <glyph glyph-name="two" unicode="2" horiz-adv-x="620" 
d="M80 0v69l-13 15l271 248q55 53 55 95q0 41 -26 64.5t-71 23.5q-79 0 -137 -88l-103 75q42 65 106 100.5t136 35.5q102 0 167.5 -57t65.5 -156q0 -55 -22.5 -95.5t-74.5 -88.5l-130 -119h238v-122h-462z" />
    <glyph glyph-name="three" unicode="3" horiz-adv-x="651" 
d="M494 322q79 -52 79 -136q0 -88 -75 -143t-195 -55q-76 0 -140 29.5t-107 78.5l92 86q62 -70 154 -70q62 0 98 20.5t36 54.5q0 32 -34.5 51t-94.5 19h-128v123h125q53 0 84.5 17.5t31.5 47.5q0 32 -31.5 51t-88.5 19q-86 0 -134 -66l-102 75q38 54 100.5 84t135.5 30
q113 0 184.5 -53t71.5 -138q0 -74 -62 -125z" />
    <glyph glyph-name="four" unicode="4" horiz-adv-x="625" 
d="M578 127h-108v-127h-134v127h-293v89l246 412h154l-227 -379h120v188h134v-188h108v-122z" />
    <glyph glyph-name="five" unicode="5" horiz-adv-x="638" 
d="M308 408q117 0 188.5 -58t71.5 -151t-72 -152t-188 -59q-78 0 -141.5 34.5t-101.5 93.5l94 89q55 -93 148 -93q58 0 92 23.5t34 63.5q0 39 -33.5 62t-91.5 23q-59 0 -112 -36l-78 74l18 306h401v-123h-274l-5 -100q24 3 50 3z" />
    <glyph glyph-name="six" unicode="6" horiz-adv-x="660" 
d="M334 -12q-112 0 -184.5 62.5t-72.5 162.5q0 56 34 109l208 306h159l-135 -204h9q107 0 174 -59t67 -148q0 -104 -72.5 -166.5t-186.5 -62.5zM334 112q56 0 89 27.5t33 75.5q0 38 -32.5 61.5t-88.5 23.5q-55 0 -88.5 -24.5t-33.5 -61.5q0 -47 33 -74.5t88 -27.5z" />
    <glyph glyph-name="seven" unicode="7" horiz-adv-x="544" 
d="M517 628v-90l-299 -538h-150l279 505h-319v123h489z" />
    <glyph glyph-name="eight" unicode="8" horiz-adv-x="696" 
d="M541 322q78 -52 78 -136q0 -87 -75.5 -142.5t-193.5 -55.5q-121 0 -196.5 55.5t-75.5 142.5t75 136q-58 46 -58 125q0 85 70.5 138t182.5 53t182 -53t70 -139q0 -78 -59 -124zM348 515q-54 0 -85 -18.5t-31 -50.5q0 -30 30 -47.5t86 -17.5q55 0 85.5 16.5t30.5 47.5
q0 32 -30 51t-86 19zM350 112q60 0 96 20.5t36 54.5q0 32 -35 51t-97 19q-64 0 -99.5 -19.5t-35.5 -51.5q0 -33 36.5 -53.5t98.5 -20.5z" />
    <glyph glyph-name="nine" unicode="9" horiz-adv-x="660" 
d="M171 0l144 202h-6q-108 0 -175.5 60t-67.5 155q0 98 72.5 158.5t185.5 60.5t186.5 -60.5t73.5 -155.5q0 -64 -42 -122l-211 -298h-160zM322 326q57 0 90.5 25.5t33.5 67.5v1q0 41 -33.5 66.5t-88.5 25.5t-88.5 -25.5t-33.5 -67.5q0 -43 32.5 -68t87.5 -25z" />
    <glyph glyph-name="colon" unicode=":" 
d="M170 335q-34 0 -57.5 22.5t-23.5 53.5q0 32 23.5 53.5t57.5 21.5t57.5 -21.5t23.5 -53.5q0 -31 -23.5 -53.5t-57.5 -22.5zM170 -10q-34 0 -57.5 22t-23.5 54q0 31 23.5 53t57.5 22t57.5 -22t23.5 -53q0 -32 -23.5 -54t-57.5 -22z" />
    <glyph glyph-name="semicolon" unicode=";" horiz-adv-x="336" 
d="M166 335q-33 0 -56.5 22.5t-23.5 53.5q0 32 23 53.5t57 21.5q32 0 56.5 -21.5t24.5 -53.5q0 -30 -24.5 -53t-56.5 -23zM102 141h144l-63 -272h-115z" />
    <glyph glyph-name="less" unicode="&#x3c;" horiz-adv-x="519" 
d="M475 370l-259 -107l259 -105v-133l-432 181v115l432 180v-131z" />
    <glyph glyph-name="equal" unicode="=" horiz-adv-x="571" 
d="M45 404h480v-114h-480v114zM45 238h480v-114h-480v114z" />
    <glyph glyph-name="greater" unicode="&#x3e;" horiz-adv-x="514" 
d="M476 321v-115l-432 -181v133l260 105l-260 107v131z" />
    <glyph glyph-name="question" unicode="?" horiz-adv-x="604" 
d="M235 181v44q0 35 15 58t65 71l18 18q35 33 46 48t11 34q0 36 -24.5 56.5t-68.5 20.5q-77 0 -138 -85l-103 74q93 135 243 135q104 0 165.5 -54.5t61.5 -149.5q0 -49 -22.5 -83t-90.5 -100q-33 -32 -41.5 -46.5t-8.5 -40.5h-128zM299 -10q-33 0 -55.5 21.5t-22.5 51.5
q0 31 22.5 52t55.5 21q32 0 54.5 -21t22.5 -52q0 -30 -22.5 -51.5t-54.5 -21.5z" />
    <glyph glyph-name="at" unicode="@" horiz-adv-x="1034" 
d="M726 44h-113v13q-44 -22 -123 -22q-98 0 -166.5 63.5t-68.5 159.5q0 98 68.5 160.5t169.5 62.5q70 0 116 -25v18h117q-84 70 -207 70q-133 0 -220 -81t-87 -208q0 -129 86.5 -211.5t223.5 -82.5q106 0 209 76l82 -87q-142 -100 -291 -100q-191 0 -313 114.5t-122 291.5
q0 175 123 287t309 112q184 0 305 -112.5t121 -269.5q0 -106 -57 -167.5t-162 -61.5zM822 273q0 121 -95 200v-319q46 4 70.5 37t24.5 82zM494 146q54 0 87 31t33 81t-33 81.5t-87 31.5q-52 0 -85 -31.5t-33 -81.5t32.5 -81t85.5 -31z" />
    <glyph glyph-name="A" unicode="A" horiz-adv-x="808" 
d="M552 152h-294l-72 -152h-151l305 665h128l305 -665h-151zM497 276l-92 209l-90 -209h182z" />
    <glyph glyph-name="B" unicode="B" horiz-adv-x="753" 
d="M666 475q0 -78 -47 -130q19 -23 33 -61t14 -72q0 -86 -63.5 -149t-167.5 -63h-327v665h327q107 0 169 -52.5t62 -137.5zM442 407q86 0 86 68q0 31 -24 48t-69 17h-191v-133h198zM435 125q43 0 68 26t25 61q0 68 -86 68h-198v-155h191z" />
    <glyph glyph-name="C" unicode="C" horiz-adv-x="870" 
d="M428 -12q-160 2 -263.5 98.5t-103.5 246.5q0 152 106 248t270 96q119 0 216 -65.5t146 -177.5l-149 -1q-32 55 -88 86t-125 31q-105 0 -171 -60.5t-66 -156.5q0 -56 26 -108q30 -47 84.5 -76.5t115.5 -33.5h15q64 3 122 33t86 84l153 -1q-34 -69 -36 -72
q-58 -86 -136 -126.5t-185 -44.5h-17z" />
    <glyph glyph-name="D" unicode="D" horiz-adv-x="818" 
d="M382 665q164 0 269.5 -91t105.5 -241q0 -151 -105.5 -242t-269.5 -91h-274v665h274zM382 126q108 0 172.5 56.5t64.5 150.5q0 93 -64.5 149.5t-172.5 56.5h-138v-413h138z" />
    <glyph glyph-name="E" unicode="E" horiz-adv-x="697" 
d="M635 125v-125h-527v665h520v-125h-384v-142h330v-124h-330v-149h391z" />
    <glyph glyph-name="F" unicode="F" horiz-adv-x="683" 
d="M244 0h-136v665h520v-125h-384v-142h330v-124h-330v-274z" />
    <glyph glyph-name="G" unicode="G" horiz-adv-x="850" 
d="M456 -12h-28q-160 2 -263.5 98.5t-103.5 246.5q0 152 106 248t270 96q119 0 216 -65.5t146 -177.5l-149 -1q-32 55 -88 86t-125 31q-105 0 -171 -60.5t-66 -156.5q0 -56 26 -108q30 -47 84.5 -76.5t115.5 -33.5h11q104 0 175 64l1 2q31 35 46 74l-250 1v123h397l3 -26
q2 -14 2 -35q-4 -98 -56 -178l-3 -3q-24 -31 -36 -41l-6 -7q-80 -74 -203 -96l-19 -3q-14 0 -32 -2z" />
    <glyph glyph-name="H" unicode="H" horiz-adv-x="827" 
d="M719 665v-665h-138v274h-337v-274h-136v665h136v-267h337v267h138z" />
    <glyph glyph-name="I" unicode="I" horiz-adv-x="353" 
d="M244 0h-136v665h136v-665z" />
    <glyph glyph-name="J" unicode="J" horiz-adv-x="704" 
d="M469 665h136v-362q0 -315 -285 -315q-268 0 -285 305h134q7 -95 42.5 -136.5t108.5 -41.5q80 0 114.5 43t34.5 145v362z" />
    <glyph glyph-name="K" unicode="K" horiz-adv-x="782" 
d="M327 265l-83 -84v-181h-136v665h136v-295l295 295h183l-300 -304l325 -361h-179z" />
    <glyph glyph-name="L" unicode="L" horiz-adv-x="637" 
d="M601 125v-125h-493v665h136v-540h357z" />
    <glyph glyph-name="M" unicode="M" horiz-adv-x="974" 
d="M866 0h-136v421l-182 -355h-122l-182 355v-421h-136v665h164l215 -423l216 423h163v-665z" />
    <glyph glyph-name="N" unicode="N" horiz-adv-x="808" 
d="M699 665v-665h-113l-342 427v-427h-136v665h115l340 -426v426h136z" />
    <glyph glyph-name="O" unicode="O" horiz-adv-x="872" 
d="M437 -12q-164 0 -270 96.5t-106 248.5t106 248t270 96q163 0 268.5 -96.5t105.5 -247.5q0 -152 -105.5 -248.5t-268.5 -96.5zM437 115q104 0 169.5 60.5t65.5 157.5t-65.5 157t-169.5 60q-105 0 -171 -60.5t-66 -156.5q0 -97 66 -157.5t171 -60.5z" />
    <glyph glyph-name="P" unicode="P" horiz-adv-x="723" 
d="M244 282l-1 -283h-135v665h327q107 0 169 -52.5t62 -137.5q0 -84 -62.5 -138t-168.5 -54h-191zM244 407h191q44 0 68.5 18.5t24.5 49.5t-24 48t-69 17h-191v-133z" />
    <glyph glyph-name="Q" unicode="Q" horiz-adv-x="896" 
d="M811 333q0 -161 -119 -258l62 -96l-120 -64l-59 96q-71 -23 -138 -23q-164 0 -270 96.5t-106 248.5t106 248t270 96q163 0 268.5 -96.5t105.5 -247.5zM437 115q38 0 66 7l-90 140l118 64l88 -139q53 61 53 146q0 97 -65.5 157t-169.5 60q-105 0 -171 -60.5t-66 -156.5
q0 -97 66 -157.5t171 -60.5z" />
    <glyph glyph-name="R" unicode="R" horiz-adv-x="738" 
d="M483 285l221 -285h-174l-209 282h-77l-1 -283h-135v665h327q107 0 169 -52.5t62 -137.5q0 -76 -47.5 -127.5t-135.5 -61.5zM244 540v-133h191q44 0 68.5 18.5t24.5 49.5t-24 48t-69 17h-191z" />
    <glyph glyph-name="S" unicode="S" horiz-adv-x="736" 
d="M373 -12q-84 0 -172.5 30.5t-143.5 68.5l81 99q104 -71 236 -71q65 0 105 20t40 57q0 18 -11 31t-34 21t-42 12.5t-51 9.5l-11 1q-1 0 -2 1h-2q-3 0 -5 1q-150 26 -211 70.5t-61 122.5q0 60 26.5 103.5t71 67t94 34t104.5 10.5q126 0 283 -86l-85 -98q-103 57 -200 57
q-75 0 -115 -21.5t-40 -60.5q0 -30 34 -46t124 -29q33 -5 46.5 -7.5t49 -10.5t54 -16t46 -24t42 -34.5t25.5 -46t11 -60.5q0 -92 -78 -149t-209 -57z" />
    <glyph glyph-name="T" unicode="T" horiz-adv-x="666" 
d="M632 540h-230v-540h-137v540h-230v125h597v-125z" />
    <glyph glyph-name="U" unicode="U" horiz-adv-x="803" 
d="M402 -12q-165 0 -234.5 83t-69.5 232v362h140v-362q0 -101 38 -144.5t126 -43.5q87 0 125 43.5t38 144.5v362h140v-362q0 -71 -14.5 -125.5t-48 -98.5t-94 -67.5t-146.5 -23.5z" />
    <glyph glyph-name="V" unicode="V" horiz-adv-x="785" 
d="M749 665l-293 -665h-127l-294 665h151l206 -479l206 479h151z" />
    <glyph glyph-name="W" unicode="W" horiz-adv-x="1154" 
d="M1119 665l-241 -665h-138l-163 457l-164 -457h-138l-240 665h147l162 -468l166 468h132l166 -466l162 466h149z" />
    <glyph glyph-name="X" unicode="X" horiz-adv-x="796" 
d="M587 0l-189 239l-189 -239h-174l276 341l-263 324h172l177 -226l179 226h173l-264 -324l276 -341h-174z" />
    <glyph glyph-name="Y" unicode="Y" horiz-adv-x="798" 
d="M468 268v-268h-136v268l-297 397h171l194 -270l194 270h170z" />
    <glyph glyph-name="Z" unicode="Z" horiz-adv-x="678" 
d="M621 571l-366 -446h359v-125h-557v94l366 446h-354v125h552v-94z" />
    <glyph glyph-name="bracketleft" unicode="[" horiz-adv-x="419" 
d="M241 523v-510h144v-122h-277v753h277v-121h-144z" />
    <glyph glyph-name="backslash" unicode="\" horiz-adv-x="605" 
d="M34 687h145l394 -729h-146z" />
    <glyph glyph-name="bracketright" unicode="]" horiz-adv-x="419" 
d="M310 -109h-276v122h143v510h-143v121h276v-753z" />
    <glyph glyph-name="underscore" unicode="_" horiz-adv-x="586" 
d="M531 -115h-476v115h476v-115z" />
    <glyph glyph-name="a" unicode="a" horiz-adv-x="685" 
d="M597 476v-476h-123v17q-52 -29 -141 -29q-109 0 -185.5 70.5t-76.5 179.5t76.5 179t188.5 70q78 0 134 -31v20h127zM339 107q62 0 100 36t38 95q0 60 -38 96t-100 36t-100 -36.5t-38 -95.5q0 -58 38 -94.5t100 -36.5z" />
    <glyph glyph-name="b" unicode="b" horiz-adv-x="670" 
d="M350 487q114 0 190 -69.5t76 -179.5q0 -109 -75.5 -179.5t-186.5 -70.5q-80 0 -141 43v-31h-124v687h127v-235q59 35 134 35zM347 107q62 0 100.5 36t38.5 95t-38.5 95.5t-100.5 36.5t-99.5 -36t-37.5 -96q0 -59 37.5 -95t99.5 -36z" />
    <glyph glyph-name="c" unicode="c" horiz-adv-x="599" 
d="M326 -12q-117 0 -193.5 70t-76.5 180q0 109 77 179t193 70q119 0 215 -91l-92 -86q-55 60 -123 60q-62 0 -101 -36.5t-39 -95.5q0 -58 39 -94.5t102 -36.5q66 0 127 62l90 -87q-104 -94 -218 -94z" />
    <glyph glyph-name="d" unicode="d" horiz-adv-x="671" 
d="M321 487q79 0 134 -35v235h127v-687h-123v30q-61 -42 -142 -42q-109 0 -185 70.5t-76 179.5t76.5 179t188.5 70zM325 107q61 0 99.5 36t38.5 95q0 60 -38.5 96t-99.5 36q-62 0 -100 -36.5t-38 -95.5t38 -95t100 -36z" />
    <glyph glyph-name="e" unicode="e" horiz-adv-x="620" 
d="M565 267q0 -34 -13 -82h-356q34 -80 129 -80q70 0 143 64l81 -88q-104 -93 -223 -93q-118 0 -194 70t-76 182q0 109 73.5 178t189.5 69q117 0 181.5 -64.5t64.5 -155.5zM318 371q-93 0 -123 -71h234q-9 32 -37.5 51.5t-73.5 19.5z" />
    <glyph glyph-name="f" unicode="f" horiz-adv-x="464" 
d="M256 476h177v-114h-177v-362h-127v362h-104v114h104v44q0 177 193 177q77 0 150 -53l-65 -98q-46 32 -87 32q-34 0 -49 -14t-15 -44v-44z" />
    <glyph glyph-name="g" unicode="g" horiz-adv-x="617" 
d="M303 -221q-127 0 -197.5 47t-70.5 121q0 65 50 101q-24 30 -24 70q0 55 43 84q-34 45 -34 103q0 80 61.5 130t158.5 52q46 0 82 -11h200l-38 -106h-34q11 -31 11 -65q0 -82 -60.5 -131.5t-159.5 -49.5q-40 0 -74 7h-3q-25 0 -25 -12q0 -11 30 -11h81q134 0 197 -38.5
t63 -118.5q0 -82 -63.5 -127t-193.5 -45zM291 240q44 0 68 17t24 48q0 30 -24.5 48t-67.5 18t-68 -17.5t-25 -48.5t24.5 -48t68.5 -17zM303 -104q129 0 129 55q0 22 -29 30.5t-103 8.5h-98q-37 -13 -37 -40q0 -54 138 -54z" />
    <glyph glyph-name="h" unicode="h" horiz-adv-x="645" 
d="M345 487q94 0 155 -55t61 -145v-287h-128v279q0 43 -26.5 67t-73.5 24q-46 0 -81.5 -25.5t-35.5 -68.5v-276h-127v687h127v-225q47 25 129 25z" />
    <glyph glyph-name="i" unicode="i" horiz-adv-x="334" 
d="M167 492q-33 0 -55.5 21t-22.5 52t22.5 52t55.5 21q32 0 55 -21.5t23 -51.5t-23 -51.5t-55 -21.5zM230 0h-128v476h128v-476z" />
    <glyph glyph-name="j" unicode="j" horiz-adv-x="334" 
d="M168 493q-31 0 -54.5 21t-23.5 51t23.5 51.5t54.5 21.5q33 0 55 -20.5t22 -52.5q0 -31 -22.5 -51.5t-54.5 -20.5zM66 -221q-57 0 -124 37l67 101q39 -21 56 -21q37 0 37 36v544h130v-544q0 -153 -166 -153z" />
    <glyph glyph-name="k" unicode="k" horiz-adv-x="620" 
d="M276 181l-60 -56v-125h-127v687h127v-397l198 186h181l-228 -214l223 -262h-162z" />
    <glyph glyph-name="l" unicode="l" horiz-adv-x="305" 
d="M89 687h127v-687h-127v687z" />
    <glyph glyph-name="m" unicode="m" horiz-adv-x="960" 
d="M89 0v476h127v-14q41 22 113 25h10q102 -2 160 -67q65 67 168 67q92 0 150.5 -55.5t58.5 -144.5v-287h-127v279q0 42 -24.5 66.5t-66.5 24.5q-46 0 -79 -25.5t-33 -68.5v-276h-126v279q0 40 -25.5 64.5t-65.5 26.5q-44 -3 -78.5 -28.5t-34.5 -65.5v-276h-127z" />
    <glyph glyph-name="n" unicode="n" horiz-adv-x="645" 
d="M345 487q94 0 155 -55t61 -145v-287h-128v279q0 43 -26.5 67t-73.5 24q-46 0 -81.5 -25.5t-35.5 -68.5v-276h-127v476h127v-14q47 25 129 25z" />
    <glyph glyph-name="o" unicode="o" horiz-adv-x="650" 
d="M325 -12q-116 0 -192.5 70t-76.5 180q0 109 76.5 179t192.5 70q117 0 194 -70t77 -179q0 -110 -77 -180t-194 -70zM325 107q62 0 101 36.5t39 94.5q0 59 -39 95.5t-101 36.5t-100.5 -36.5t-38.5 -95.5t38.5 -95t100.5 -36z" />
    <glyph glyph-name="p" unicode="p" horiz-adv-x="670" 
d="M350 -12q-74 0 -134 37v-246h-127v697h124v-30q58 41 141 41q111 0 186.5 -70.5t75.5 -179.5q0 -110 -76 -179.5t-190 -69.5zM347 370q-62 0 -99.5 -36t-37.5 -96q0 -59 37.5 -95t99.5 -36t100.5 36t38.5 95t-38.5 95.5t-100.5 36.5z" />
    <glyph glyph-name="q" unicode="q" horiz-adv-x="671" 
d="M321 -12q-112 0 -188.5 70t-76.5 179t76 179.5t185 70.5q82 0 142 -41v30h123v-697h-127v246q-58 -37 -134 -37zM325 370q-62 0 -100 -36.5t-38 -95.5t38 -95t100 -36q61 0 99.5 36t38.5 95q0 60 -38.5 96t-99.5 36z" />
    <glyph glyph-name="r" unicode="r" horiz-adv-x="468" 
d="M345 487q39 0 99 -18l-37 -117l-29 11q-21 7 -45 7q-46 0 -81.5 -25.5t-35.5 -68.5v-276h-127v476h127v-14q47 25 129 25z" />
    <glyph glyph-name="s" unicode="s" horiz-adv-x="560" 
d="M285 -12q-57 0 -123.5 20.5t-113.5 54.5l65 99q32 -23 82 -39t91 -16q95 0 95 38q0 14 -26 22t-78 16q-107 18 -153.5 48t-46.5 98q0 44 19.5 76t53 49t70.5 25t78 8q110 0 214 -63l-65 -98q-77 44 -150 44q-90 0 -90 -39q0 -10 17.5 -16t70.5 -15q44 -8 68 -13t57 -16.5
t49.5 -26t29 -39t12.5 -57.5q0 -75 -62 -117.5t-164 -42.5z" />
    <glyph glyph-name="t" unicode="t" horiz-adv-x="493" 
d="M437 24l-27 -12q-50 -24 -108 -24q-92 0 -141.5 45.5t-49.5 131.5v197h-97v114h97v130h127v-130h199v-114h-199v-197q0 -58 63 -58q40 0 81 18z" />
    <glyph glyph-name="u" unicode="u" horiz-adv-x="639" 
d="M297 -12q-93 0 -153 55.5t-60 145.5v287h127v-280q0 -42 26.5 -65.5t74.5 -23.5q46 0 81 25.5t35 69.5v274h127v-476h-127v14q-51 -26 -131 -26z" />
    <glyph glyph-name="v" unicode="v" horiz-adv-x="617" 
d="M593 476l-226 -476h-117l-226 476h142l142 -310l143 310h142z" />
    <glyph glyph-name="w" unicode="w" horiz-adv-x="871" 
d="M847 476l-183 -476h-124l-104 288l-105 -288h-124l-183 476h138l108 -289l105 289h121l106 -289l108 289h137z" />
    <glyph glyph-name="x" unicode="x" horiz-adv-x="635" 
d="M446 0l-128 154l-128 -154h-166l210 242l-202 234h163l123 -145l121 145h167l-204 -234l209 -242h-165z" />
    <glyph glyph-name="y" unicode="y" horiz-adv-x="609" 
d="M585 476l-321 -697h-132l111 249l-219 448h142l143 -299l134 299h142z" />
    <glyph glyph-name="z" unicode="z" horiz-adv-x="526" 
d="M475 115v-115h-435v89l246 273h-237v114h423v-88l-247 -273h250z" />
    <glyph glyph-name="braceleft" unicode="{" horiz-adv-x="472" 
d="M311 377q0 -70 -41 -108q41 -38 41 -109v-96q0 -59 62 -59q17 0 65 8v-122q-44 -10 -72 -10q-92 0 -140.5 45t-48.5 132v96q0 54 -56 54h-45v122h45q29 0 42.5 13t13.5 41v95q0 87 48.5 131.5t140.5 44.5q22 0 40 -2l32 -4v-128q-44 10 -65 10q-33 0 -47.5 -14t-14.5 -44
v-96z" />
    <glyph glyph-name="braceright" unicode="}" horiz-adv-x="472" 
d="M396 330v-122h-45q-56 0 -56 -54v-96q0 -87 -48.5 -132t-140.5 -45q-26 0 -72 10v122q48 -8 66 -8q32 0 46 14.5t14 44.5v96q0 71 42 109q-42 38 -42 108v96q0 30 -14 44t-46 14q-23 0 -66 -10v126l30 6q22 2 42 2q92 0 140.5 -44.5t48.5 -131.5v-95q0 -28 13.5 -41
t42.5 -13h45z" />
    <glyph glyph-name="asciitilde" unicode="~" horiz-adv-x="559" 
d="M160 192l-115 38l6 26q13 53 48 87t88 34q35 0 103 -28l32 -12q37 -14 45 -14q2 0 3 1q14 3 26 61l117 -36q-36 -148 -142 -148q-36 0 -101 28l-32 12q-30 14 -44 14q-17 0 -34 -63z" />
    <glyph glyph-name="exclamdown" unicode="&#xa1;" horiz-adv-x="337" 
d="M169 340q-31 0 -54.5 22t-23.5 51q0 31 23 51.5t55 20.5t54.5 -20.5t22.5 -51.5q0 -29 -23 -51t-54 -22zM106 296h126l8 -464h-141z" />
    <glyph glyph-name="cent" unicode="&#xa2;" horiz-adv-x="620" 
d="M554 89l-19 -21q-54 -62 -144 -75v-89h-127v94q-89 19 -141 83.5t-52 156.5q0 93 51.5 157t141.5 83v93h127v-88q86 -12 160 -93l-86 -83q-58 63 -124 63q-62 0 -100.5 -36.5t-38.5 -95.5q0 -58 38.5 -94.5t100.5 -36.5q66 0 126 66z" />
    <glyph glyph-name="sterling" unicode="&#xa3;" horiz-adv-x="661" 
d="M268 122h322v-122h-535v122h79v139h-79v122h79v44q0 101 71 165t179 64q129 0 221 -111l-110 -71q-47 57 -111 57q-51 0 -83.5 -28.5t-32.5 -75.5v-44h247v-122h-247v-139z" />
    <glyph glyph-name="yen" unicode="&#xa5;" horiz-adv-x="776" 
d="M547 383h94v-114h-178l-8 -10v-17h186v-114h-186v-128h-132v128h-187v114h187v16l-8 11h-179v114h93l-194 261h167l187 -261l187 261h166z" />
    <glyph glyph-name="copyright" unicode="&#xa9;" horiz-adv-x="908" 
d="M453 -12q-158 0 -261.5 94t-103.5 241q0 145 103.5 238.5t261.5 93.5t262 -93.5t104 -238.5q0 -147 -104 -241t-262 -94zM453 97q109 0 179 63t70 163q0 99 -70 162t-179 63q-107 0 -177 -63t-70 -162q0 -100 69.5 -163t177.5 -63zM456 126q-93 0 -153 55t-60 142
q0 85 61 141t153 56q54 0 103.5 -29.5t82.5 -79.5l-95 -62q-41 62 -91 62q-42 0 -68.5 -24.5t-26.5 -63.5q0 -40 26 -65t68 -25q55 0 94 63l97 -59q-35 -53 -85.5 -82t-105.5 -29z" />
    <glyph glyph-name="registered" unicode="&#xae;" horiz-adv-x="593" 
d="M298 657q109 0 180.5 -65t71.5 -167q0 -101 -71.5 -166t-180.5 -65q-110 0 -182 65t-72 166q0 102 72 167t182 65zM426 317q43 43 43 108q0 69 -48 112.5t-123 43.5q-55 0 -96 -23h108q46 0 74 -24t28 -63q0 -56 -49 -77zM125 425q0 -77 59 -122v243q-59 -43 -59 -121z
M265 457h45q21 0 21 14q0 12 -21 12h-45v-26zM200 293q43 -24 98 -24q53 0 96 24h-52l-70 90h-7v-90h-65z" />
    <glyph glyph-name="periodcentered" unicode="&#xb7;" 
d="M170 207q-34 0 -57.5 22t-23.5 53t24 54t57 23t57 -23t24 -54t-23.5 -53t-57.5 -22z" />
    <glyph glyph-name="questiondown" unicode="&#xbf;" horiz-adv-x="604" 
d="M306 340q-33 0 -55.5 21.5t-22.5 51.5q0 31 22 51.5t56 20.5q32 0 54.5 -20.5t22.5 -51.5q0 -30 -22.5 -51.5t-54.5 -21.5zM305 -178q-105 0 -166 54t-61 149q0 50 21 82t92 102q35 34 43 47t8 40h127v-40q0 -40 -12.5 -60t-67.5 -74l-7 -7q-6 -6 -9 -8
q-35 -33 -46.5 -49t-11.5 -36q0 -36 25 -57t69 -21q77 0 137 88l102 -75q-93 -135 -243 -135z" />
    <glyph glyph-name="multiply" unicode="&#xd7;" horiz-adv-x="567" 
d="M55 135l141 127l-141 129l87 80l143 -128l142 128l87 -80l-142 -129l142 -127l-87 -79l-142 128l-143 -129z" />
    <glyph glyph-name="divide" unicode="&#xf7;" horiz-adv-x="571" 
d="M286 335q-32 0 -55 22t-23 51q0 31 23 52t55 21t55 -21.5t23 -51.5q0 -29 -23.5 -51t-54.5 -22zM45 320h480v-115h-480v115zM286 44q-32 0 -55 22t-23 52q0 29 23 51t55 22q31 0 54.5 -22t23.5 -51q0 -30 -23 -52t-55 -22z" />
    <glyph glyph-name="endash" unicode="&#x2013;" horiz-adv-x="578" 
d="M524 320v-114h-469v114h469z" />
    <glyph glyph-name="emdash" unicode="&#x2014;" horiz-adv-x="895" 
d="M840 320v-114h-785v114h785z" />
    <glyph glyph-name="quoteleft" unicode="&#x2018;" 
d="M152 665h115l-34 -272h-144z" />
    <glyph glyph-name="quoteright" unicode="&#x2019;" 
d="M107 665h143l-62 -272h-116z" />
    <glyph glyph-name="quotesinglbase" unicode="&#x201a;" 
d="M107 141h143l-62 -272h-116z" />
    <glyph glyph-name="quotedblleft" unicode="&#x201c;" horiz-adv-x="508" 
d="M152 665h115l-34 -272h-144zM322 665h113l-34 -272h-144z" />
    <glyph glyph-name="quotedblright" unicode="&#x201d;" horiz-adv-x="508" 
d="M107 665h143l-62 -272h-116zM275 665h143l-63 -272h-113z" />
    <glyph glyph-name="quotedblbase" unicode="&#x201e;" horiz-adv-x="508" 
d="M107 141h143l-62 -272h-116zM275 141h143l-63 -272h-113z" />
    <glyph glyph-name="bullet" unicode="&#x2022;" horiz-adv-x="446" 
d="M224 142q-56 0 -95.5 36t-39.5 88t39.5 87.5t95.5 35.5t94.5 -35.5t38.5 -87.5t-38.5 -88t-94.5 -36z" />
    <glyph glyph-name="ellipsis" unicode="&#x2026;" horiz-adv-x="707" 
d="M152 -10q-34 0 -57 22t-23 54t23 53.5t57 21.5t57.5 -22t23.5 -53q0 -32 -23.5 -54t-57.5 -22zM352 -10q-32 0 -55.5 22.5t-23.5 53.5q0 32 22 53.5t57 21.5q33 0 57.5 -22t24.5 -53t-24.5 -53.5t-57.5 -22.5zM553 -10q-34 0 -57 22t-23 54t23 53.5t57 21.5
q33 0 57.5 -22t24.5 -53t-24.5 -53.5t-57.5 -22.5z" />
    <glyph glyph-name="Euro" unicode="&#x20ac;" horiz-adv-x="776" 
d="M610 197l98 -83l-21 -21q-95 -105 -241 -105q-109 0 -191 56t-117 151h-94v115h72v13v8v4h-72v116h94q35 95 118 149.5t191 54.5q147 0 254 -124l-94 -90q-77 90 -161 90q-102 0 -158 -80h261v-116h-297v-12v-13h297v-115h-262q56 -82 159 -82q88 0 164 84z" />
    <glyph glyph-name="minus" unicode="&#x2212;" horiz-adv-x="571" 
d="M45 320h480v-115h-480v115z" />
    <glyph glyph-name="a.alt" horiz-adv-x="623" 
d="M319 487q104 0 159.5 -50.5t55.5 -149.5v-287h-122v32q-65 -44 -150 -44q-78 0 -134.5 43.5t-56.5 119.5q0 81 64 121.5t153 40.5q55 0 120 -13q-8 70 -98 70q-80 0 -163 -58l-59 96q105 79 231 79zM274 108q39 0 74 22.5t51 58.5q-57 12 -100 12q-98 0 -98 -48
q0 -21 20 -33t53 -12z" />
    <glyph glyph-name="_FSHallmark" horiz-adv-x="980" 
d="M92 784h819v-96h-819v96zM805 505q0 10 -7 22q-9 10 -18 17q-16 8 -23 10q-3 0 -11.5 1.5t-12.5 1.5q-25 0 -47 -12q-20 -13 -20 -29q0 -30 18 -40q25 -13 44 -17l65 -15q17 -6 29 -7q5 -1 24 -6q3 -2 10.5 -5.5t10.5 -5.5q21 -13 31 -27q11 -18 12 -43q1 -26 -10 -49
q-25 -41 -72 -58q-48 -15 -93 -15q-39 0 -67 9q-26 7 -57 27q-25 18 -42 47q-15 27 -15 64l95 -2q0 -5 4 -14q2 -15 14 -26q11 -11 25 -17q17 -9 46 -9q32 0 52 12q20 9 20 25q0 30 -78 46q-74 18 -120 43q-49 26 -49 82q0 48 32 74q31 25 72 39q34 8 68 8q48 0 93 -18
q44 -18 65 -65q11 -27 11 -48h-99zM200 228h-108v407h345v-93h-237v-91h197v-91h-197v-132zM428 277q0 21 14 35q13 13 35 13q20 0 39 -14q16 -13 16 -34q0 -19 -16 -34q-17 -13 -39 -13q-19 0 -34 15q-15 13 -15 32zM90 177h820v-97h-820v97z" />
    <glyph glyph-name="_Fontastica" horiz-adv-x="980" 
d="M283 147h-113q-1 2 -1 5v664h497v-102h-383v-273h384v-103h-384v-191zM355 626h385v190h113v-667h-498v101h385v273h-385v103zM740 82q-7 -4 -7 -10q0 -9 5 -14q4 -6 12 -6q9 0 18 6l6 -6q-9 -11 -24 -11q-10 0 -21 6q-6 7 -9 21q-1 13 8 22q10 10 22 10q14 0 24 -10
l-6 -8q-1 1 -3 2.5t-3 2.5q-1 2 -9 2h-3q-9 -4 -10 -7zM170 99h42v-10h-27v-16h26v-9h-26v-22h-15v57zM264 99q18 0 29 -15q8 -11 2 -26q-6 -16 -25 -17l-7 -3q-8 0 -12 4q-18 8 -18 25q0 15 9 23q6 9 22 9zM374 42h-3q-2 -1 -4 -1q-5 0 -9 6l-6 8q0 2 -2 4.5t-3 3.5l-12 14
v-35h-13v57h11q4 -1 6 -8q9 -9 13 -14q1 -2 5 -8l6 -9v39h11v-57zM399 99h48v-10h-18v-47h-12v47h-18v10zM577 72q12 -2 12 -13q1 -12 -10 -17q-2 -1 -11 -1q-19 0 -27 9q1 1 1 2l1 2q0 2 2 4l18 -6h8q4 6 4 3q0 9 -13 12q-2 0 -3 1t-5 1q-9 3 -9 13q-3 9 8 15q6 2 13 2
q14 0 23 -5l-5 -10q-2 1 -4 1q-1 0 -3 1q-1 1 -4 1q-1 0 -2 2h-8q-4 0 -4 -4q-2 -2 4 -8q6 -1 14 -5zM608 99h50v-10h-18v-47h-13v47h-19v10zM681 99h15v-57h-15v57zM832 99l12 -27q0 -2 6 -16q4 -10 7 -14h-13l-5 12h-28l-5 -12h-13q15 29 23 57h16zM497 97q2 -6 6 -13
q2 -2 4 -7t3 -6q0 -2 2 -7t3 -8t3 -7.5t2 -6.5h-13q-1 1 -1 5l-1 2q-1 1 -1.5 2t-0.5 3h-26q-1 -2 -1 -7q-1 -1 -1 -2l-3 -3h-12l24 55h13zM281 71q0 8 -4 13q-7 5 -14 5q-2 -2 -4 -2q-6 -1 -11 -9q-6 -7 -1 -14q4 -13 17 -13q4 0 5 1q12 3 12 17v2zM499 64q-1 0 -1 2t-1 3
t-2 3l-1 2q-1 2 -1 6q-1 1 -2 3l-1 2l-10 -21h19zM833 64q-1 1 -1 5q-2 5 -3 5q-1 1 -1 3t-1 3l-1 2q-1 2 -2 3l-9 -21h18z" />
    </font>
</defs>
</svg>
