<?xml version="1.0" standalone="no"?>
<!DOCTYPE svg PUBLIC "-//W3C//DTD SVG 1.1//EN" "http://www.w3.org/Graphics/SVG/1.1/DTD/svg11.dtd" >
<svg xmlns="http://www.w3.org/2000/svg" xmlns:xlink="http://www.w3.org/1999/xlink" version="1.1">
<metadata>
Created by FontForge 20170731 at Sat Apr 13 18:39:29 2019
 By Aleksey,,,
Copyright (c) 2019 by Fontastica. All rights reserved.
</metadata>
<defs>
<font id="Brooklyn-SemiBoldItalic" horiz-adv-x="305" >
  <font-face 
    font-family="Brooklyn SemiBold Italic"
    font-weight="600"
    font-style="italic"
    font-stretch="normal"
    units-per-em="1000"
    panose-1="0 0 7 0 0 0 0 0 0 0"
    ascent="800"
    descent="-200"
    x-height="476"
    cap-height="665"
    bbox="-197 -240 1127 816"
    underline-thickness="50"
    underline-position="-200"
    unicode-range="U+0020-2212"
  />
<missing-glyph horiz-adv-x="509" 
 />
    <glyph glyph-name=".notdef" horiz-adv-x="509" 
 />
    <glyph glyph-name=".null" horiz-adv-x="0" 
 />
    <glyph glyph-name="nonmarkingreturn" horiz-adv-x="333" 
 />
    <glyph glyph-name="space" unicode=" " horiz-adv-x="265" 
 />
    <glyph glyph-name="exclam" unicode="!" horiz-adv-x="308" 
d="M98 658h111l-81 -461h-96zM48 -10q-26 0 -42.5 16.5t-12.5 40.5t25.5 41t47.5 17t41.5 -16.5t11.5 -41.5q-4 -24 -24.5 -40.5t-46.5 -16.5z" />
    <glyph glyph-name="quotedbl" unicode="&#x22;" horiz-adv-x="378" 
d="M58 681h104l-49 -253h-89zM222 681h104l-48 -253h-90z" />
    <glyph glyph-name="numbersign" unicode="#" horiz-adv-x="724" 
d="M508 408l-59 -153h120l-31 -81h-122l-68 -174h-101l68 174h-139l-67 -174h-102l68 174h-119l31 81h120l59 153h-118l32 82h119l67 168h101l-66 -168h138l66 168h103l-67 -168h121l-32 -82h-122zM407 408h-140l-59 -153h140z" />
    <glyph glyph-name="dollar" unicode="$" horiz-adv-x="694" 
d="M563 184q-13 -81 -82 -132t-177 -62l-16 -103h-103l16 103q-69 7 -133.5 31.5t-104.5 52.5l67 83q45 -35 108 -56.5t128 -21.5q77 0 129.5 26t61.5 77q3 20 -4.5 35t-18 23.5t-35 17t-38.5 11.5t-47 9l-25 4q-148 27 -200.5 66.5t-40.5 117.5q15 93 86 140.5t174 59.5
l17 105h103l-17 -103q107 -5 205 -65l-61 -77q-89 52 -193 52q-191 0 -208 -108q-6 -40 29 -60.5t140 -37.5q115 -19 161 -42q95 -46 79 -146z" />
    <glyph glyph-name="percent" unicode="%" horiz-adv-x="988" 
d="M671 669h112l-578 -681h-113zM184 301q-85 0 -133 50.5t-35 130.5t77 131t149 51q86 0 134 -51t35 -131t-77 -130.5t-150 -50.5zM197 383q47 0 79.5 27t39.5 72t-16.5 72t-70.5 27q-46 0 -78 -26t-39 -73q-7 -45 16 -72t69 -27zM638 -7q-86 0 -133.5 51t-34.5 131t76 131
t149 51t134 -51t35 -131t-76.5 -131t-149.5 -51zM651 75q46 0 78 27.5t39 72.5t-16 72t-70 27q-46 0 -78 -26.5t-39 -72.5q-7 -45 16.5 -72.5t69.5 -27.5z" />
    <glyph glyph-name="ampersand" unicode="&#x26;" horiz-adv-x="810" 
d="M502 0l-90 93l-46 -41q-72 -64 -180 -64q-93 0 -146.5 50.5t-40.5 129.5q15 93 102 150l60 38l-37 39q-43 45 -33 113q11 70 72.5 115.5t144.5 45.5q80 0 125.5 -44t35.5 -113q-13 -80 -85 -125l-66 -42l110 -116l147 131l31 -95l-115 -101l157 -164h-146zM294 578
q-39 0 -65.5 -19t-31.5 -51q-5 -33 13 -51l45 -47l74 48q29 18 33 52q5 31 -13.5 49.5t-54.5 18.5zM349 159l-125 131l-69 -45q-42 -28 -50 -77q-6 -40 19 -64.5t75 -24.5q58 0 99 34z" />
    <glyph glyph-name="quotesingle" unicode="'" horiz-adv-x="213" 
d="M58 681h104l-49 -253h-89z" />
    <glyph glyph-name="parenleft" unicode="(" horiz-adv-x="462" 
d="M246 -133l-9 3q-119 49 -177 154.5t-36 245.5q22 139 116.5 245.5t232.5 156.5l21 -86q-106 -41 -176 -124t-88 -192q-17 -109 27 -192.5t137 -124.5z" />
    <glyph glyph-name="parenright" unicode=")" horiz-adv-x="462" 
d="M-58 -47l10 4q101 38 168.5 121t84.5 192q18 108 -26 191.5t-137 124.5l48 86q123 -49 183 -155.5t38 -246.5t-115.5 -246.5t-232.5 -156.5z" />
    <glyph glyph-name="asterisk" unicode="*" horiz-adv-x="495" 
d="M288 489l66 -92l-84 -50l-58 97l-88 -97l-67 50l94 92l-118 34l41 80l115 -40l16 118h91l-23 -118l128 40l17 -80z" />
    <glyph glyph-name="plus" unicode="+" horiz-adv-x="571" 
d="M455 223h-195l-28 -177h-88l28 177h-197l13 82h197l28 178h88l-28 -178h195z" />
    <glyph glyph-name="comma" unicode="," horiz-adv-x="299" 
d="M12 111h111l-99 -254h-84z" />
    <glyph glyph-name="hyphen" unicode="-" horiz-adv-x="426" 
d="M315 306l-13 -82h-317l13 82h317z" />
    <glyph glyph-name="period" unicode="." horiz-adv-x="311" 
d="M49 -10q-28 0 -44.5 17.5t-12.5 42.5q4 26 25.5 43.5t50.5 17.5q28 0 44.5 -17.5t12.5 -43.5q-4 -25 -26 -42.5t-50 -17.5z" />
    <glyph glyph-name="slash" unicode="/" horiz-adv-x="581" 
d="M445 704h110l-525 -750h-109z" />
    <glyph glyph-name="zero" unicode="0" horiz-adv-x="756" 
d="M271 -12q-130 0 -200.5 92.5t-47.5 239.5q24 147 123.5 239t229.5 92q131 0 201 -92.5t47 -238.5t-122.5 -239t-230.5 -93zM285 79q85 0 151 67.5t82 173.5q17 106 -27.5 173t-129.5 67t-150 -67t-82 -173q-16 -107 27.5 -174t128.5 -67z" />
    <glyph glyph-name="one" unicode="1" horiz-adv-x="375" 
d="M266 640l-101 -640h-103l81 516l-141 -51l16 97l215 78h33z" />
    <glyph glyph-name="two" unicode="2" horiz-adv-x="612" 
d="M443 90l-14 -90h-460l9 62l-4 6l320 256q41 34 60.5 59.5t25.5 59.5q8 54 -21 85.5t-88 31.5q-97 0 -167 -86l-69 56q47 58 114 89.5t139 31.5q101 0 157.5 -56t41.5 -154q-9 -54 -38.5 -95t-89.5 -89l-208 -167h292z" />
    <glyph glyph-name="three" unicode="3" horiz-adv-x="645" 
d="M413 328l-20 8q54 -22 80 -62.5t17 -93.5q-14 -85 -97.5 -138.5t-204.5 -53.5q-78 0 -136 25.5t-88 68.5l79 64q47 -67 158 -67q77 0 126.5 28t57.5 75q7 44 -32.5 70.5t-114.5 26.5h-118l14 91h115q68 0 111.5 25t50.5 68t-28.5 70t-107.5 27q-103 0 -161 -64l-68 57
q42 46 106 72t138 26q113 0 176 -51.5t50 -134.5q-13 -88 -103 -137z" />
    <glyph glyph-name="four" unicode="4" horiz-adv-x="629" 
d="M499 138h-118l-22 -138h-102l22 138h-319l11 70l326 432h118l-311 -412h189l32 205h102l-32 -205h118z" />
    <glyph glyph-name="five" unicode="5" horiz-adv-x="634" 
d="M260 401q117 0 180.5 -57t49.5 -149q-15 -92 -96.5 -149.5t-198.5 -57.5q-80 0 -137 30.5t-82 83.5l80 66q39 -89 152 -89q73 0 120.5 31.5t56.5 84.5q8 53 -29 83.5t-110 30.5q-69 0 -126 -33l-54 62l65 302h394l-14 -90h-296l-33 -157q38 8 78 8z" />
    <glyph glyph-name="six" unicode="6" horiz-adv-x="662" 
d="M315 418q107 0 165 -58t44 -145q-17 -104 -99 -165.5t-196 -61.5t-177 61.5t-47 161.5q9 55 51 106l270 323h122l-186 -227q28 5 53 5zM243 79q70 0 117 35.5t57 98.5q8 50 -28 81.5t-106 31.5t-117.5 -32t-55.5 -82q-10 -61 26.5 -97t106.5 -36z" />
    <glyph glyph-name="seven" unicode="7" horiz-adv-x="544" 
d="M513 640l-11 -71l-406 -569h-115l391 550h-362l14 90h489z" />
    <glyph glyph-name="eight" unicode="8" horiz-adv-x="700" 
d="M468 328l-22 8q58 -21 83.5 -61t16.5 -95q-13 -85 -97.5 -138.5t-203.5 -53.5q-122 0 -190 54t-54 139q16 100 126 146q-76 42 -62 138q13 83 92 134.5t191 51.5t174 -51.5t49 -135.5q-14 -94 -103 -136zM333 560q-69 0 -111.5 -25.5t-50.5 -70.5q-7 -44 27 -68.5
t105 -24.5q70 0 113 24t50 68q7 43 -27.5 70t-105.5 27zM259 79q76 0 125 28t57 75q7 45 -33 71t-117 26q-80 0 -128 -26.5t-56 -71.5q-7 -46 34 -74t118 -28z" />
    <glyph glyph-name="nine" unicode="9" horiz-adv-x="662" 
d="M323 649q113 0 177.5 -59.5t49.5 -154.5q-11 -66 -60 -120l-273 -315h-122l195 224q-21 -4 -51 -4q-109 0 -167 59t-43 153q16 98 98 157.5t196 59.5zM442 434l1 2q8 54 -28.5 87.5t-105.5 33.5q-70 0 -118 -34t-57 -89q-8 -56 28 -89t105 -33q72 0 119.5 33.5t55.5 88.5
z" />
    <glyph glyph-name="colon" unicode=":" horiz-adv-x="311" 
d="M108 364q-28 0 -44.5 18t-12.5 43q4 26 26.5 43.5t50.5 17.5t44 -17.5t12 -43.5q-4 -25 -26 -43t-50 -18zM49 -10q-28 0 -44.5 17.5t-12.5 42.5t26 43t50 18t44.5 -17.5t12.5 -43.5q-4 -25 -26 -42.5t-50 -17.5z" />
    <glyph glyph-name="semicolon" unicode=";" horiz-adv-x="306" 
d="M102 364q-27 0 -43.5 18t-12.5 43q4 26 26 43.5t50 17.5q27 0 44 -17.5t13 -43.5q-4 -24 -27 -42.5t-50 -18.5zM12 111h111l-99 -254h-84z" />
    <glyph glyph-name="less" unicode="&#x3c;" horiz-adv-x="515" 
d="M428 395l-338 -130l297 -129l-15 -98l-400 179l15 96l456 178z" />
    <glyph glyph-name="equal" unicode="=" horiz-adv-x="571" 
d="M2 396h480l-12 -81h-480zM-26 216h480l-13 -82h-480z" />
    <glyph glyph-name="greater" unicode="&#x3e;" horiz-adv-x="510" 
d="M416 313l-15 -96l-456 -179l15 98l339 129l-298 130l15 96z" />
    <glyph glyph-name="question" unicode="?" horiz-adv-x="594" 
d="M169 197l1 9l3 17q5 34 22 54.5t78 70.5l23 20q48 40 64 58.5t20 45.5q8 50 -19.5 78t-85.5 28q-95 0 -168 -85l-69 56q102 120 254 120q104 0 156 -53t37 -147q-8 -48 -35.5 -81.5t-109.5 -101.5q-48 -40 -60 -54.5t-15 -34.5h-96zM184 -10q-27 0 -43 17t-12 40
q4 25 25 41.5t48 16.5q26 0 41.5 -16.5t11.5 -41.5q-4 -24 -24.5 -40.5t-46.5 -16.5z" />
    <glyph glyph-name="at" unicode="@" horiz-adv-x="1067" 
d="M978 275q0 -104 -56.5 -165.5t-160.5 -61.5h-103v34q-45 -44 -154 -44q-98 0 -166.5 63t-68.5 159q0 97 68.5 159t169.5 62q94 0 147 -46v37h86v-347h19q64 1 95.5 42.5t31.5 107.5q0 133 -100 224.5t-251 91.5q-154 0 -254.5 -94t-100.5 -242q0 -149 100 -244t259 -95
q125 0 225 74l59 -62q-130 -91 -285 -91q-198 0 -324.5 118.5t-126.5 300.5t127.5 297.5t320.5 115.5q192 0 317.5 -115.5t125.5 -278.5zM508 116q68 0 110 39.5t42 104.5q0 64 -42 104t-110 40q-66 0 -107.5 -40t-41.5 -104t41.5 -104t107.5 -40z" />
    <glyph glyph-name="A" unicode="A" horiz-adv-x="789" 
d="M486 162h-340l-101 -162h-115l410 665h109l200 -665h-114zM460 252l-84 295l-173 -295h257z" />
    <glyph glyph-name="B" unicode="B" horiz-adv-x="747" 
d="M547 347q18 -6 32 -53t8 -90q-13 -83 -84.5 -143.5t-172.5 -60.5h-327l105 665h327q104 0 156.5 -50t39.5 -131q-7 -44 -30 -81t-54 -56zM197 574l-29 -183h231q112 0 126 93q7 43 -20 66.5t-84 23.5h-224zM120 91h224q55 0 92.5 33.5t44.5 79.5t-17.5 70t-79.5 24h-231z
" />
    <glyph glyph-name="C" unicode="C" horiz-adv-x="862" 
d="M605 205l116 -1l-29 -45q-73 -86 -158 -126.5t-194 -44.5h-17q-161 2 -249.5 98.5t-65.5 246.5q25 152 147 248t286 96q121 0 206 -58t114 -158l-115 -1q-25 59 -83 92t-137 33q-120 0 -207 -70.5t-105 -181.5q-11 -69 13 -130h1q24 -55 79 -87.5t128 -35.5h17
q74 2 143 34t110 91z" />
    <glyph glyph-name="D" unicode="D" horiz-adv-x="818" 
d="M378 665q166 0 258 -91t68 -241q-24 -151 -144.5 -242t-286.5 -91h-270l105 665h270zM287 92q124 0 209 66t102 175q17 108 -47 174t-188 66h-167l-76 -481h167z" />
    <glyph glyph-name="E" unicode="E" horiz-adv-x="689" 
d="M536 91l-14 -91h-519l105 665h510l-14 -91h-407l-31 -193h351l-14 -90h-351l-32 -200h416z" />
    <glyph glyph-name="F" unicode="F" horiz-adv-x="673" 
d="M106 0h-103l105 665h510l-14 -91h-407l-31 -193h351l-14 -90h-351z" />
    <glyph glyph-name="G" unicode="G" horiz-adv-x="856" 
d="M762 318q-19 -97 -84 -176l-3 -3q-23 -26 -45 -44l-5 -5q-89 -75 -220 -97l-20 -3q-12 0 -34 -2h-28q-161 2 -249.5 98.5t-65.5 246.5q25 152 147 248t286 96q121 0 206 -58t114 -158l-115 -1q-25 59 -83 92t-137 33q-120 0 -207 -70.5t-105 -181.5q-11 -69 13 -130h1
q24 -55 79 -87.5t128 -35.5h11q123 0 214 76l3 2q52 48 79 113l-273 1l14 89h383l-1 -10q0 -15 -3 -33z" />
    <glyph glyph-name="H" unicode="H" horiz-adv-x="823" 
d="M715 665l-105 -665h-104l46 291h-400l-46 -291h-103l105 665h103l-45 -284h400l45 284h104z" />
    <glyph glyph-name="I" unicode="I" horiz-adv-x="320" 
d="M106 0h-103l105 665h103z" />
    <glyph glyph-name="J" unicode="J" horiz-adv-x="696" 
d="M495 665h102l-58 -364q-23 -147 -100 -230t-230 -83q-264 0 -237 281h101q-9 -101 26.5 -145t123.5 -44q96 0 145.5 50.5t68.5 170.5z" />
    <glyph glyph-name="K" unicode="K" horiz-adv-x="754" 
d="M262 291l-128 -111l-28 -180h-103l105 665h103l-54 -344l397 344h136l-346 -302l270 -363h-133z" />
    <glyph glyph-name="L" unicode="L" horiz-adv-x="627" 
d="M500 91l-14 -91h-483l105 665h103l-91 -574h380z" />
    <glyph glyph-name="M" unicode="M" horiz-adv-x="980" 
d="M767 0h-103l81 513l-297 -443h-104l-157 444l-81 -514h-103l105 665h140l166 -474l318 474h140z" />
    <glyph glyph-name="N" unicode="N" horiz-adv-x="804" 
d="M695 665l-105 -665h-90l-316 492l-78 -492h-103l105 665h91l315 -491l78 491h103z" />
    <glyph glyph-name="O" unicode="O" horiz-adv-x="878" 
d="M332 -12q-164 0 -256 96.5t-68 248.5q25 152 147 248t286 96t256 -96.5t67 -247.5q-24 -152 -146 -248.5t-286 -96.5zM346 80q121 0 208 70.5t104 182.5q18 112 -46.5 182t-185.5 70q-120 0 -207 -70.5t-105 -181.5q-17 -112 47.5 -182.5t184.5 -70.5z" />
    <glyph glyph-name="P" unicode="P" horiz-adv-x="717" 
d="M153 300l-48 -301h-102l105 665h327q104 0 156.5 -50t39.5 -131q-12 -80 -81.5 -131.5t-172.5 -51.5h-224zM168 391h224q57 0 91.5 25t41.5 68t-20 66.5t-84 23.5h-224z" />
    <glyph glyph-name="Q" unicode="Q" horiz-adv-x="902" 
d="M764 333q-13 -84 -59.5 -153.5t-116.5 -116.5l47 -98l-97 -48l-46 98q-81 -27 -160 -27q-164 0 -256 96.5t-68 248.5q25 152 147 248t286 96t256 -96.5t67 -247.5zM346 80q58 0 107 16l-75 154l97 48l73 -153q92 74 110 188q18 112 -46.5 182t-185.5 70
q-120 0 -207 -70.5t-105 -181.5q-17 -112 47.5 -182.5t184.5 -70.5z" />
    <glyph glyph-name="R" unicode="R" horiz-adv-x="712" 
d="M388 300l185 -300h-132l-174 300h-114l-48 -301h-102l105 665h327q104 0 156.5 -50t39.5 -131q-12 -78 -78 -129t-165 -54zM197 574l-29 -183h224q57 0 91.5 25t41.5 68t-20 66.5t-84 23.5h-224z" />
    <glyph glyph-name="S" unicode="S" horiz-adv-x="714" 
d="M256 -12q-87 0 -167 27t-125 61l70 73q92 -69 237 -69q78 0 131 27t61 77q3 20 -5 36t-19.5 25.5t-36.5 17t-42 11t-48 8.5l-18 3q-154 25 -205 66.5t-39 118.5q12 76 67 124.5t120 65.5t140 17q134 0 256 -76l-73 -71q-93 55 -200 55q-90 0 -142.5 -28.5t-60.5 -80.5
q-7 -42 29.5 -63.5t140.5 -36.5q32 -5 45.5 -7.5t47 -10.5t51 -15.5t42.5 -23t36.5 -32.5t18.5 -43.5t2 -57.5q-14 -89 -99.5 -143.5t-214.5 -54.5z" />
    <glyph glyph-name="T" unicode="T" horiz-adv-x="662" 
d="M614 574h-245l-91 -574h-104l91 574h-244l14 91h593z" />
    <glyph glyph-name="U" unicode="U" horiz-adv-x="799" 
d="M293 -12q-84 0 -141 23t-83 64.5t-34 99t5 126.5l58 364h107l-58 -364q-19 -119 18.5 -170t141.5 -51q103 0 156.5 51t72.5 170l58 364h107l-58 -364q-23 -147 -104.5 -230t-245.5 -83z" />
    <glyph glyph-name="V" unicode="V" horiz-adv-x="765" 
d="M729 665l-398 -665h-107l-189 665h115l146 -542l319 542h114z" />
    <glyph glyph-name="W" unicode="W" horiz-adv-x="1162" 
d="M1127 665l-346 -665h-117l-105 526l-272 -526h-117l-135 665h112l102 -539l276 539h111l106 -537l272 537h113z" />
    <glyph glyph-name="X" unicode="X" horiz-adv-x="754" 
d="M483 0l-169 267l-253 -267h-131l330 341l-212 324h129l159 -253l240 253h130l-315 -324l223 -341h-131z" />
    <glyph glyph-name="Y" unicode="Y" horiz-adv-x="761" 
d="M370 270l-42 -270h-103l42 270l-232 395h129l169 -302l265 302h129z" />
    <glyph glyph-name="Z" unicode="Z" horiz-adv-x="672" 
d="M604 593l-493 -502h406l-14 -91h-551l11 72l493 502h-401l14 91h546z" />
    <glyph glyph-name="bracketleft" unicode="[" horiz-adv-x="401" 
d="M195 568l-95 -596h157l-14 -91h-259l123 777h259l-14 -90h-157z" />
    <glyph glyph-name="backslash" unicode="\" horiz-adv-x="581" 
d="M40 704h109l287 -750h-110z" />
    <glyph glyph-name="bracketright" unicode="]" horiz-adv-x="401" 
d="M168 -119h-258l14 91h155l95 596h-155l14 90h258z" />
    <glyph glyph-name="underscore" unicode="_" horiz-adv-x="586" 
d="M406 -125h-476l13 82h476z" />
    <glyph glyph-name="a" unicode="a" horiz-adv-x="689" 
d="M571 476l-75 -476h-92l6 40q-58 -52 -182 -52q-111 0 -176.5 70.5t-48.5 179.5q18 109 106 179t201 70q108 0 158 -54l7 43h96zM247 74q77 0 131.5 45t65.5 119q12 74 -28 119t-117 45q-76 0 -130.5 -45t-66.5 -119q-11 -74 29 -119t116 -45z" />
    <glyph glyph-name="b" unicode="b" horiz-adv-x="674" 
d="M324 487q114 0 180 -70t48 -179q-17 -109 -104.5 -179.5t-198.5 -70.5t-164 71l-9 -59h-92l111 704h96l-44 -277q73 60 177 60zM255 74q77 0 132 45.5t66 118.5q12 73 -28.5 118.5t-117.5 45.5t-131 -45t-66 -119q-11 -74 28.5 -119t116.5 -45z" />
    <glyph glyph-name="c" unicode="c" horiz-adv-x="589" 
d="M221 -12q-118 0 -184 70t-49 180q17 109 105.5 179t206.5 70q122 0 191 -77l-79 -64q-41 56 -126 56q-77 0 -132 -45t-67 -119q-11 -73 29.5 -118.5t118.5 -45.5q81 0 149 58l55 -64q-99 -80 -218 -80z" />
    <glyph glyph-name="d" unicode="d" horiz-adv-x="675" 
d="M295 487q105 0 157 -60l44 277h96l-111 -704h-92l9 59q-73 -71 -186 -71q-110 0 -175.5 70.5t-48.5 179.5q18 109 106 179t201 70zM233 74q76 0 131 45t66 119q12 74 -28.5 119t-116.5 45q-77 0 -131 -45t-66 -119q-11 -74 28.5 -119t116.5 -45z" />
    <glyph glyph-name="e" unicode="e" horiz-adv-x="622" 
d="M293 487q116 0 171 -64.5t40 -153.5q-4 -29 -19 -68h-402v12q-2 -65 38.5 -103t111.5 -38q86 0 164 60l49 -64q-101 -80 -225 -80q-119 0 -184.5 70t-47.5 182q17 110 101.5 178.5t202.5 68.5zM279 404q-65 0 -113.5 -32t-68.5 -88h308q5 52 -27.5 86t-98.5 34z" />
    <glyph glyph-name="f" unicode="f" horiz-adv-x="452" 
d="M204 476h192l-13 -83h-192l-62 -393h-96l62 393h-113l13 83h113l11 68q27 171 215 171q79 0 127 -41l-58 -71q-32 26 -85 26q-47 0 -71.5 -20.5t-31.5 -64.5z" />
    <glyph glyph-name="g" unicode="g" horiz-adv-x="613" 
d="M500 402h-58q21 -41 13 -91q-13 -80 -81 -128.5t-166 -48.5q-42 0 -76 9h-7q-48 0 -53 -35q-3 -17 10 -25t38 -8h89q134 0 192 -36.5t46 -113.5q-27 -165 -285 -165q-129 0 -192.5 45t-52.5 116q11 70 83 105q-34 34 -25 81q9 61 73 86q-42 46 -30 118q12 78 80.5 126
t165.5 50q46 0 84 -11h190zM221 218q58 0 93.5 24.5t42.5 68.5q7 43 -21 68t-85 25t-93.5 -25t-43.5 -68q-7 -44 21 -68.5t86 -24.5zM350 -75q5 36 -29.5 50.5t-125.5 14.5h-110q-62 -22 -68 -66q-6 -36 31.5 -57.5t126.5 -21.5q162 0 175 80z" />
    <glyph glyph-name="h" unicode="h" horiz-adv-x="643" 
d="M319 487q93 0 144 -54t37 -142l-46 -291h-96l44 283q9 56 -20.5 87.5t-90.5 31.5q-59 0 -108.5 -33t-58.5 -91l-44 -278h-96l111 704h96l-42 -264q56 47 170 47z" />
    <glyph glyph-name="i" unicode="i" 
d="M132 535q-27 0 -42.5 17t-11.5 41q4 25 25 41.5t48 16.5q26 0 42 -17t12 -41t-25.5 -41t-47.5 -17zM95 0h-96l75 476h96z" />
    <glyph glyph-name="j" unicode="j" horiz-adv-x="309" 
d="M137 536q-25 0 -41.5 16.5t-12.5 40.5t25.5 41t46.5 17q27 0 42.5 -16.5t11.5 -41.5q-4 -24 -25 -40.5t-47 -16.5zM-97 -240q-57 0 -100 26l61 74q27 -15 51 -15q61 0 71 60l90 571h99l-90 -571q-23 -145 -182 -145z" />
    <glyph glyph-name="k" unicode="k" horiz-adv-x="591" 
d="M200 206l-101 -83l-19 -123h-96l111 704h96l-73 -459l282 231h134l-257 -210l184 -266h-120z" />
    <glyph glyph-name="l" unicode="l" horiz-adv-x="274" 
d="M95 704h96l-111 -704h-96z" />
    <glyph glyph-name="m" unicode="m" horiz-adv-x="986" 
d="M668 487q91 0 139.5 -54t35.5 -142l-46 -291h-96l44 283q9 56 -18.5 87.5t-82.5 31.5q-59 0 -105.5 -34t-55.5 -90l-44 -278h-95l44 283q9 55 -19 86.5t-82 32.5q-58 -2 -106.5 -35.5t-56.5 -88.5l-44 -278h-96l75 476h96l-6 -36q55 44 152 47h10q55 0 97.5 -23t62.5 -63
q35 39 88 62.5t109 23.5z" />
    <glyph glyph-name="n" unicode="n" horiz-adv-x="643" 
d="M319 487q93 0 144 -54t37 -142l-46 -291h-96l44 283q9 56 -20.5 87.5t-90.5 31.5q-59 0 -108.5 -33t-58.5 -91l-44 -278h-96l75 476h96l-6 -36q56 47 170 47z" />
    <glyph glyph-name="o" unicode="o" horiz-adv-x="654" 
d="M220 -12q-118 0 -183.5 70t-48.5 180q18 110 105.5 179.5t205.5 69.5t184.5 -70t48.5 -179q-17 -110 -105.5 -180t-206.5 -70zM233 74q77 0 132.5 45.5t66.5 118.5q12 73 -29 118.5t-118 45.5t-131.5 -45t-66.5 -119q-11 -74 29 -119t117 -45z" />
    <glyph glyph-name="p" unicode="p" horiz-adv-x="674" 
d="M245 -12q-103 0 -158 60l-45 -288h-96l113 716h92l-9 -60q74 71 186 71q111 0 176.5 -70.5t47.5 -179.5q-17 -109 -105 -179t-202 -70zM307 402q-77 0 -131 -45t-66 -119q-11 -74 28.5 -119t116.5 -45t132 45.5t66 118.5q12 73 -28.5 118.5t-117.5 45.5z" />
    <glyph glyph-name="q" unicode="q" horiz-adv-x="675" 
d="M216 -12q-113 0 -179 70t-49 179q18 109 105.5 179.5t197.5 70.5q114 0 164 -71l9 60h92l-113 -716h-96l45 288q-73 -60 -176 -60zM285 402q-77 0 -131 -45t-66 -119q-11 -74 28.5 -119t116.5 -45q76 0 131 45t66 119q12 74 -28.5 119t-116.5 45z" />
    <glyph glyph-name="r" unicode="r" horiz-adv-x="451" 
d="M377 432l-16 -33l-5 -10l-9 4q-23 9 -56 9q-59 0 -108.5 -33t-58.5 -91l-44 -278h-96l75 476h96l-6 -36q56 47 170 47q39 0 78 -12z" />
    <glyph glyph-name="s" unicode="s" horiz-adv-x="549" 
d="M170 -12q-59 0 -121 17.5t-98 47.5l58 72q27 -21 77 -36t98 -15q53 0 91.5 15t43.5 48q2 10 -1 17.5t-13 13.5t-18 10t-26.5 8.5t-29 6.5t-34.5 6q-103 18 -145 46t-32 92q6 41 30.5 72t60.5 47t73.5 23.5t78.5 7.5q113 0 194 -54l-58 -72q-65 41 -152 41
q-118 0 -129 -63q-3 -22 18 -33t89 -22q44 -8 66.5 -13t54 -16t45.5 -24.5t23 -36.5t4 -54q-12 -72 -79.5 -112t-168.5 -40z" />
    <glyph glyph-name="t" unicode="t" horiz-adv-x="487" 
d="M320 15l-10 -4q-48 -23 -111 -23q-91 0 -132 43.5t-28 127.5l37 234h-105l13 83h105l22 140h96l-22 -140h216l-13 -83h-216l-37 -234q-13 -85 76 -85q46 0 82 14z" />
    <glyph glyph-name="u" unicode="u" horiz-adv-x="637" 
d="M188 -12q-93 0 -143.5 54t-36.5 143l46 291h96l-45 -284q-9 -56 20 -87t91 -31q59 0 109 33.5t59 90.5l44 278h95l-75 -476h-95l5 35q-57 -47 -170 -47z" />
    <glyph glyph-name="v" unicode="v" horiz-adv-x="599" 
d="M545 476l-300 -476h-100l-151 476h107l111 -367l226 367h107z" />
    <glyph glyph-name="w" unicode="w" horiz-adv-x="881" 
d="M827 476l-258 -476h-105l-73 354l-184 -354h-105l-108 476h104l76 -356l185 356h103l73 -356l188 356h104z" />
    <glyph glyph-name="x" unicode="x" horiz-adv-x="593" 
d="M341 0l-121 179l-178 -179h-123l248 242l-165 234h122l116 -170l169 170h124l-240 -234l171 -242h-123z" />
    <glyph glyph-name="y" unicode="y" horiz-adv-x="591" 
d="M537 476l-443 -716h-97l150 250l-153 466h107l114 -356l214 356h108z" />
    <glyph glyph-name="z" unicode="z" horiz-adv-x="522" 
d="M379 82l-13 -82h-431l10 67l346 326h-285l13 83h418l-11 -67l-346 -327h299z" />
    <glyph glyph-name="braceleft" unicode="{" horiz-adv-x="461" 
d="M245 389q-12 -83 -77 -118q53 -34 40 -119l-17 -104q-14 -86 75 -86q15 0 51 6l-15 -91q-30 -6 -58 -6q-89 0 -129.5 43.5t-27.5 127.5l17 104q13 80 -70 80h-28l15 90h28q83 0 94 80l17 103q13 83 67 126.5t144 43.5q21 0 41 -2l15 -2l-15 -93q-26 6 -49 6
q-46 0 -70 -21t-31 -64z" />
    <glyph glyph-name="braceright" unicode="}" horiz-adv-x="461" 
d="M330 316l-15 -90h-28q-42 0 -64.5 -19t-29.5 -61l-17 -104q-13 -84 -67 -127.5t-144 -43.5q-26 0 -56 6l15 91q33 -6 49 -6q47 0 70 21t30 65l17 104q13 84 79 119q-54 34 -42 118l17 104q7 43 -10 64t-64 21q-22 0 -51 -6l15 93l14 2q22 2 44 2q90 0 130 -43t27 -127
l-17 -103q-6 -42 10.5 -61t59.5 -19h28z" />
    <glyph glyph-name="asciitilde" unicode="~" horiz-adv-x="549" 
d="M-22 243l4 9q21 51 58.5 83t87.5 32q32 0 98 -28l34 -14q42 -16 55 -16q6 0 9 1q26 6 47 60l81 -27q-49 -124 -148 -124q-35 0 -98 28l-32 14q-36 16 -53 16q-16 0 -29 -10.5t-19 -21.5t-14 -30z" />
    <glyph glyph-name="exclamdown" unicode="&#xa1;" horiz-adv-x="308" 
d="M108 370q-25 0 -41.5 17.5t-13.5 40.5q4 24 25.5 40.5t47.5 16.5t41.5 -16.5t11.5 -40.5q-3 -23 -24.5 -40.5t-46.5 -17.5zM45 279h96l-65 -461h-111z" />
    <glyph glyph-name="cent" unicode="&#xa2;" horiz-adv-x="612" 
d="M452 74l-8 -8q-74 -67 -174 -76l-15 -94h-96l16 98q-92 17 -139.5 83.5t-32.5 160.5t83.5 160.5t165.5 83.5l15 97h96l-15 -94q96 -7 153 -81l-73 -61q-46 59 -127 59q-76 0 -131 -45.5t-67 -118.5q-11 -73 29.5 -118.5t116.5 -45.5q83 0 148 62z" />
    <glyph glyph-name="sterling" unicode="&#xa3;" horiz-adv-x="656" 
d="M153 90h350l-14 -90h-539l14 90h86l31 194h-86l14 90h86l11 69q16 100 97 163.5t190 63.5q130 0 193 -94l-91 -53q-40 55 -117 55q-66 0 -112.5 -37t-56.5 -98l-11 -69h269l-14 -90h-269z" />
    <glyph glyph-name="yen" unicode="&#xa5;" horiz-adv-x="753" 
d="M461 374h124l-13 -82h-184l-23 -25l-7 -46h203l-13 -82h-203l-22 -139h-101l22 139h-203l13 82h203l7 45l-16 26h-183l13 82h122l-166 284h128l167 -299l262 299h127z" />
    <glyph glyph-name="copyright" unicode="&#xa9;" horiz-adv-x="929" 
d="M463 -12q-162 0 -268.5 95.5t-106.5 245.5t106.5 245t268.5 95q164 0 270.5 -95t106.5 -245t-106.5 -245.5t-270.5 -95.5zM463 63q128 0 210 74t82 192q0 117 -82 191.5t-210 74.5q-125 0 -207.5 -74.5t-82.5 -191.5q0 -118 81.5 -192t208.5 -74zM467 137q-92 0 -151 54
t-59 138t59.5 138.5t151.5 54.5q53 0 99 -24.5t74 -65.5l-68 -44q-39 59 -105 59q-55 0 -90 -33t-35 -85t34.5 -85t89.5 -33q71 0 109 60l69 -42q-29 -44 -76 -68t-102 -24z" />
    <glyph glyph-name="registered" unicode="&#xae;" horiz-adv-x="594" 
d="M298 664q109 0 181 -65t72 -166t-72 -166t-181 -65q-110 0 -182 65t-72 166t72 166t182 65zM298 260q83 0 136 48t53 125q0 76 -53 124.5t-136 48.5q-84 0 -137 -48.5t-53 -124.5q0 -77 53 -125t137 -48zM407 481q0 -59 -58 -76l81 -100h-81l-73 94h-22v-94h-64v256h121
q43 0 69.5 -22t26.5 -58zM254 456h57q32 0 32 25q0 23 -32 23h-57v-48z" />
    <glyph glyph-name="periodcentered" unicode="&#xb7;" horiz-adv-x="311" 
d="M86 225q-28 0 -44.5 17.5t-12.5 43.5q4 25 26.5 43t50.5 18q27 0 43.5 -18t12.5 -43t-26 -43t-50 -18z" />
    <glyph glyph-name="questiondown" unicode="&#xbf;" horiz-adv-x="594" 
d="M257 370q-26 0 -41.5 17t-12.5 41q5 25 25 41t47 16q26 0 42 -16.5t12 -40.5q-3 -23 -24.5 -40.5t-47.5 -17.5zM167 -194q-103 0 -155.5 53.5t-37.5 146.5q7 48 34 80.5t112 104.5q49 41 60 54t15 34h96q-3 -12 -3 -21q-7 -38 -22.5 -58t-78.5 -73q-4 -3 -10 -8.5
t-10 -7.5q-51 -43 -67 -61t-21 -47q-8 -49 20.5 -77.5t85.5 -28.5q95 0 169 86l67 -56q-102 -121 -254 -121z" />
    <glyph glyph-name="multiply" unicode="&#xd7;" horiz-adv-x="544" 
d="M-31 125l175 139l-130 140l72 58l133 -139l176 139l55 -58l-178 -140l133 -139l-73 -57l-132 139l-177 -140z" />
    <glyph glyph-name="divide" unicode="&#xf7;" horiz-adv-x="571" 
d="M238 364q-26 0 -42 17.5t-12 40.5q4 25 25.5 42t47.5 17t42 -17t12 -42q-4 -23 -25.5 -40.5t-47.5 -17.5zM-12 305h480l-13 -82h-480zM188 48q-26 0 -42 17.5t-12 41.5q4 23 25.5 40.5t47.5 17.5q25 0 41.5 -17.5t12.5 -40.5q-4 -24 -25.5 -41.5t-47.5 -17.5z" />
    <glyph glyph-name="endash" unicode="&#x2013;" horiz-adv-x="576" 
d="M465 306l-13 -82h-467l13 82h467z" />
    <glyph glyph-name="emdash" unicode="&#x2014;" horiz-adv-x="921" 
d="M809 306l-13 -82h-811l13 82h811z" />
    <glyph glyph-name="quoteleft" unicode="&#x2018;" 
d="M151 681h84l-73 -254h-111z" />
    <glyph glyph-name="quoteright" unicode="&#x2019;" 
d="M108 681h110l-99 -254h-85z" />
    <glyph glyph-name="quotesinglbase" unicode="&#x201a;" 
d="M17 111h110l-98 -254h-85z" />
    <glyph glyph-name="quotedblleft" unicode="&#x201c;" horiz-adv-x="487" 
d="M151 681h84l-73 -254h-111zM335 681h82l-72 -254h-111z" />
    <glyph glyph-name="quotedblright" unicode="&#x201d;" horiz-adv-x="487" 
d="M108 681h110l-99 -254h-85zM290 681h110l-99 -254h-83z" />
    <glyph glyph-name="quotedblbase" unicode="&#x201e;" horiz-adv-x="487" 
d="M17 111h110l-98 -254h-85zM199 111h110l-98 -254h-83z" />
    <glyph glyph-name="bullet" unicode="&#x2022;" horiz-adv-x="427" 
d="M133 154q-52 0 -83 33.5t-24 80.5t49 80t94 33t82.5 -33t23.5 -80q-8 -47 -49 -80.5t-93 -33.5z" />
    <glyph glyph-name="ellipsis" unicode="&#x2026;" horiz-adv-x="713" 
d="M31 -10q-28 0 -44 17.5t-12 42.5q4 26 25.5 43.5t49.5 17.5t44.5 -17.5t12.5 -43.5q-4 -25 -26 -42.5t-50 -17.5zM249 -10q-27 0 -43 17.5t-12 42.5q4 26 24.5 43.5t49.5 17.5q27 0 44.5 -18t13.5 -43t-27 -42.5t-50 -17.5zM467 -10q-28 0 -44 17.5t-12 42.5
q4 26 25.5 43.5t49.5 17.5q27 0 44.5 -18t13.5 -43t-27 -42.5t-50 -17.5z" />
    <glyph glyph-name="Euro" unicode="&#x20ac;" horiz-adv-x="782" 
d="M625 102l-8 -7q-112 -107 -264 -107q-115 0 -191.5 61t-93.5 163h-96l13 82h79q1 11 5 35l6 35h-79l13 83h96q50 102 146.5 162t210.5 60q149 0 228 -111l-82 -68q-61 88 -162 88q-71 0 -131.5 -35.5t-98.5 -95.5h300l-13 -83h-322q-1 -5 -3.5 -16.5t-3.5 -18.5
q-2 -11 -4 -35h322l-13 -82h-301q19 -61 68.5 -96.5t120.5 -35.5q105 0 194 84z" />
    <glyph glyph-name="minus" unicode="&#x2212;" horiz-adv-x="571" 
d="M-12 305h480l-13 -82h-480z" />
    <glyph glyph-name="a.alt" horiz-adv-x="621" 
d="M291 487q103 0 150.5 -49.5t31.5 -146.5l-46 -291h-90l9 59q-80 -71 -195 -71q-77 0 -125.5 41t-37.5 114q13 78 82 116.5t158 38.5q77 0 149 -19l2 12q8 54 -20.5 82.5t-90.5 28.5q-93 0 -179 -54l-32 69q104 70 234 70zM177 75q64 0 120 35t67 89v1q-66 19 -138 19
q-127 0 -138 -74q-5 -33 19.5 -51.5t69.5 -18.5z" />
    <glyph glyph-name="_FSHallmark" horiz-adv-x="980" 
d="M92 784h819v-96h-819v96zM805 505q0 10 -7 22q-9 10 -18 17q-16 8 -23 10q-3 0 -11.5 1.5t-12.5 1.5q-25 0 -47 -12q-20 -13 -20 -29q0 -30 18 -40q25 -13 44 -17l65 -15q17 -6 29 -7q5 -1 24 -6q3 -2 10.5 -5.5t10.5 -5.5q21 -13 31 -27q11 -18 12 -43q1 -26 -10 -49
q-25 -41 -72 -58q-48 -15 -93 -15q-39 0 -67 9q-26 7 -57 27q-25 18 -42 47q-15 27 -15 64l95 -2q0 -5 4 -14q2 -15 14 -26q11 -11 25 -17q17 -9 46 -9q32 0 52 12q20 9 20 25q0 30 -78 46q-74 18 -120 43q-49 26 -49 82q0 48 32 74q31 25 72 39q34 8 68 8q48 0 93 -18
q44 -18 65 -65q11 -27 11 -48h-99zM200 228h-108v407h345v-93h-237v-91h197v-91h-197v-132zM428 277q0 21 14 35q13 13 35 13q20 0 39 -14q16 -13 16 -34q0 -19 -16 -34q-17 -13 -39 -13q-19 0 -34 15q-15 13 -15 32zM90 177h820v-97h-820v97z" />
    <glyph glyph-name="_Fontastica" horiz-adv-x="980" 
d="M283 147h-113q-1 2 -1 5v664h497v-102h-383v-273h384v-103h-384v-191zM355 626h385v190h113v-667h-498v101h385v273h-385v103zM740 82q-7 -4 -7 -10q0 -9 5 -14q4 -6 12 -6q9 0 18 6l6 -6q-9 -11 -24 -11q-10 0 -21 6q-6 7 -9 21q-1 13 8 22q10 10 22 10q14 0 24 -10
l-6 -8q-1 1 -3 2.5t-3 2.5q-1 2 -9 2h-3q-9 -4 -10 -7zM170 99h42v-10h-27v-16h26v-9h-26v-22h-15v57zM264 99q18 0 29 -15q8 -11 2 -26q-6 -16 -25 -17l-7 -3q-8 0 -12 4q-18 8 -18 25q0 15 9 23q6 9 22 9zM374 42h-3q-2 -1 -4 -1q-5 0 -9 6l-6 8q0 2 -2 4.5t-3 3.5l-12 14
v-35h-13v57h11q4 -1 6 -8q9 -9 13 -14q1 -2 5 -8l6 -9v39h11v-57zM399 99h48v-10h-18v-47h-12v47h-18v10zM577 72q12 -2 12 -13q1 -12 -10 -17q-2 -1 -11 -1q-19 0 -27 9q1 1 1 2l1 2q0 2 2 4l18 -6h8q4 6 4 3q0 9 -13 12q-2 0 -3 1t-5 1q-9 3 -9 13q-3 9 8 15q6 2 13 2
q14 0 23 -5l-5 -10q-2 1 -4 1q-1 0 -3 1q-1 1 -4 1q-1 0 -2 2h-8q-4 0 -4 -4q-2 -2 4 -8q6 -1 14 -5zM608 99h50v-10h-18v-47h-13v47h-19v10zM681 99h15v-57h-15v57zM832 99l12 -27q0 -2 6 -16q4 -10 7 -14h-13l-5 12h-28l-5 -12h-13q15 29 23 57h16zM497 97q2 -6 6 -13
q2 -2 4 -7t3 -6q0 -2 2 -7t3 -8t3 -7.5t2 -6.5h-13q-1 1 -1 5l-1 2q-1 1 -1.5 2t-0.5 3h-26q-1 -2 -1 -7q-1 -1 -1 -2l-3 -3h-12l24 55h13zM281 71q0 8 -4 13q-7 5 -14 5q-2 -2 -4 -2q-6 -1 -11 -9q-6 -7 -1 -14q4 -13 17 -13q4 0 5 1q12 3 12 17v2zM499 64q-1 0 -1 2t-1 3
t-2 3l-1 2q-1 2 -1 6q-1 1 -2 3l-1 2l-10 -21h19zM833 64q-1 1 -1 5q-2 5 -3 5q-1 1 -1 3t-1 3l-1 2q-1 2 -2 3l-9 -21h18z" />
    </font>
</defs>
</svg>
